M48
; DRILL file {KiCad (5.1.10-1-10_14)} date Sunday, May 30, 2021 at 09:13:47 PM
; FORMAT={-:-/ absolute / inch / decimal}
; #@! TF.CreationDate,2021-05-30T21:13:47-04:00
; #@! TF.GenerationSoftware,Kicad,Pcbnew,(5.1.10-1-10_14)
FMAT,2
INCH
T1C0.0079
T2C0.0118
T3C0.0200
T4C0.0433
%
G90
G05
T1
X2.76Y-4.36
X2.76Y-4.46
X2.76Y-4.56
X2.76Y-4.66
X2.76Y-4.74
X2.84Y-4.8
X2.915Y-4.705
X2.95Y-4.26
X3.05Y-4.26
X3.105Y-4.8675
X3.11Y-4.68
X3.135Y-4.3125
X3.15Y-4.26
X3.165Y-4.8625
X3.185Y-4.3125
X3.25Y-4.26
X3.2625Y-4.855
X3.27Y-4.6075
X3.2875Y-4.3125
X3.305Y-4.5025
X3.325Y-4.595
X3.335Y-4.3125
X3.35Y-4.26
X3.385Y-4.3125
X3.39Y-4.5325
X3.4025Y-4.8775
X3.41Y-4.83
X3.4275Y-4.515
X3.435Y-4.3125
X3.45Y-4.26
X3.46Y-4.83
X3.5075Y-4.5025
X3.55Y-4.26
X3.56Y-4.4775
X3.61Y-4.478
X3.61Y-4.6825
X3.61Y-4.83
X3.65Y-4.26
X3.68Y-4.8375
X3.71Y-4.6825
X3.7375Y-4.325
X3.75Y-4.26
X3.7525Y-4.8575
X3.76Y-4.6825
X3.785Y-4.325
X3.81Y-4.478
X3.81Y-4.6825
X3.835Y-4.325
X3.85Y-4.26
X3.86Y-4.478
X3.86Y-4.6825
X3.885Y-4.325
X3.9075Y-4.87
X3.91Y-4.478
X3.91Y-4.6825
X3.935Y-4.325
X3.95Y-4.26
X3.9525Y-4.87
X3.96Y-4.478
X3.96Y-4.6825
X4.01Y-4.478
X4.01Y-4.6825
X4.05Y-4.26
X4.06Y-4.795
X4.125Y-4.8575
X4.15Y-4.26
X4.17Y-4.8575
X4.175Y-4.4775
X4.2075Y-4.845
X4.25Y-4.26
X4.27Y-4.8575
X4.2875Y-4.705
X4.295Y-4.825
X4.3Y-4.7425
X4.3125Y-4.78
X4.34Y-4.8275
X4.35Y-4.26
X4.3525Y-4.6975
X4.4375Y-4.87
X4.45Y-4.26
X4.55Y-4.26
X4.65Y-4.26
X4.675Y-4.95
X4.7025Y-4.9125
X4.75Y-4.26
X4.75Y-4.925
X4.7975Y-4.9125
X4.825Y-4.95
X4.85Y-4.26
X4.8675Y-4.6125
X4.8975Y-4.64
X4.95Y-4.26
X4.96Y-4.4775
X5.01Y-4.6825
X5.03Y-4.8425
X5.05Y-4.26
X5.08Y-4.8425
X5.11Y-4.87
X5.15Y-4.26
X5.205Y-4.5025
X5.2175Y-4.845
X5.235Y-4.325
X5.25Y-4.26
X5.26Y-4.5025
X5.2725Y-4.845
X5.285Y-4.325
X5.315Y-4.5025
X5.33Y-4.8375
X5.335Y-4.325
X5.35Y-4.26
X5.385Y-4.48
X5.385Y-4.8575
X5.41Y-4.68
X5.435Y-4.8625
X5.45Y-4.26
X5.5025Y-4.3125
X5.51Y-4.4775
X5.51Y-4.835
X5.55Y-4.26
X5.575Y-4.8575
X5.585Y-4.325
X5.605Y-4.6825
X5.63Y-4.8575
X5.635Y-4.6575
X5.6475Y-4.3125
X5.65Y-4.26
X5.665Y-4.6825
X5.6975Y-4.8625
X5.71Y-4.33
X5.71Y-4.6825
X5.75Y-4.26
X5.76Y-4.33
X5.76Y-4.6825
X5.81Y-4.33
X5.81Y-4.6825
X5.835Y-4.835
X5.85Y-4.26
X5.86Y-4.33
X5.86Y-4.6825
X5.91Y-4.4775
X5.95Y-4.26
X5.97Y-4.875
X6.0125Y-4.85
X6.05Y-4.26
X6.0525Y-4.7525
X6.0925Y-4.8625
X6.095Y-4.4775
X6.125Y-4.835
X6.15Y-4.26
X6.165Y-4.8175
X6.1975Y-4.8575
X6.25Y-4.26
X6.26Y-4.6425
X6.26Y-4.8575
X6.35Y-4.26
X6.405Y-4.79
X6.45Y-4.26
X6.55Y-4.26
X6.58Y-4.99
X6.65Y-4.99
X6.74Y-4.36
X6.74Y-4.46
X6.74Y-4.56
X6.74Y-4.66
X6.74Y-4.74
X6.74Y-4.8
T2
X2.915Y-4.7525
X2.96Y-4.655
X2.96Y-4.795
X3.005Y-4.6975
X3.03Y-4.405
X3.03Y-4.755
X3.06Y-4.3275
X3.06Y-4.48
X3.06Y-4.68
X3.06Y-4.8325
X3.56Y-4.3275
X4.01Y-4.3275
X4.04Y-4.755
X4.0575Y-4.41
X4.065Y-4.6975
X4.155Y-4.6975
X4.155Y-4.7525
X4.3825Y-4.7825
X4.435Y-4.7825
X4.48Y-4.8275
X4.815Y-4.6975
X4.815Y-4.755
X4.905Y-4.6975
X4.93Y-4.41
X4.93Y-4.755
X4.96Y-4.3275
X4.96Y-4.68
X5.46Y-4.3275
X5.46Y-4.48
X5.51Y-4.68
X5.51Y-4.68
X5.91Y-4.3275
X5.91Y-4.68
X5.91Y-4.8325
X5.94Y-4.405
X5.94Y-4.755
X5.965Y-4.6975
X6.055Y-4.6975
X6.4825Y-4.7825
X6.535Y-4.7825
X6.535Y-4.8725
X6.58Y-4.8275
T3
X2.975Y-4.925
X3.025Y-4.925
X3.075Y-4.925
X3.125Y-4.925
X3.175Y-4.925
X3.225Y-4.925
X3.275Y-4.925
X3.325Y-4.925
X3.375Y-4.925
X3.425Y-4.925
X3.475Y-4.925
X3.525Y-4.925
X3.575Y-4.925
X3.625Y-4.925
X3.675Y-4.925
X3.725Y-4.925
X3.775Y-4.925
X3.825Y-4.925
X3.875Y-4.925
X3.925Y-4.925
X3.975Y-4.925
X4.025Y-4.925
X4.075Y-4.925
X4.125Y-4.925
X4.175Y-4.925
X4.225Y-4.925
X4.275Y-4.925
X4.325Y-4.925
X4.375Y-4.925
X4.425Y-4.925
X4.475Y-4.925
X4.525Y-4.925
X4.575Y-4.925
X4.625Y-4.925
X4.875Y-4.925
X4.925Y-4.925
X4.975Y-4.925
X5.025Y-4.925
X5.075Y-4.925
X5.125Y-4.925
X5.175Y-4.925
X5.225Y-4.925
X5.275Y-4.925
X5.325Y-4.925
X5.375Y-4.925
X5.425Y-4.925
X5.475Y-4.925
X5.525Y-4.925
X5.575Y-4.925
X5.625Y-4.925
X5.675Y-4.925
X5.725Y-4.925
X5.775Y-4.925
X5.825Y-4.925
X5.875Y-4.925
X5.925Y-4.925
X5.975Y-4.925
X6.025Y-4.925
X6.075Y-4.925
X6.125Y-4.925
X6.175Y-4.925
X6.225Y-4.925
X6.275Y-4.925
X6.325Y-4.925
X6.375Y-4.925
X6.425Y-4.925
X6.475Y-4.925
X6.525Y-4.925
T4
X2.79Y-4.29
X2.87Y-4.96
X6.71Y-4.29
X6.71Y-4.96
T0
M30
