G04 #@! TF.GenerationSoftware,KiCad,Pcbnew,(5.1.10-1-10_14)*
G04 #@! TF.CreationDate,2021-05-30T21:13:45-04:00*
G04 #@! TF.ProjectId,MacVRAMSIMM,4d616356-5241-44d5-9349-4d4d2e6b6963,rev?*
G04 #@! TF.SameCoordinates,Original*
G04 #@! TF.FileFunction,Other,Fab,Top*
%FSLAX46Y46*%
G04 Gerber Fmt 4.6, Leading zero omitted, Abs format (unit mm)*
G04 Created by KiCad (PCBNEW (5.1.10-1-10_14)) date 2021-05-30 21:13:45*
%MOMM*%
%LPD*%
G01*
G04 APERTURE LIST*
%ADD10C,0.150000*%
%ADD11C,0.100000*%
%ADD12C,0.063500*%
%ADD13C,0.203200*%
%ADD14C,0.127000*%
G04 APERTURE END LIST*
D10*
X166315000Y-123243500D02*
X164315000Y-123243500D01*
X166315000Y-121993500D02*
X166315000Y-123243500D01*
X164315000Y-121993500D02*
X166315000Y-121993500D01*
X164315000Y-123243500D02*
X164315000Y-121993500D01*
X110975000Y-123243500D02*
X110975000Y-121993500D01*
X110975000Y-121993500D02*
X112975000Y-121993500D01*
X112975000Y-121993500D02*
X112975000Y-123243500D01*
X112975000Y-123243500D02*
X110975000Y-123243500D01*
X76629000Y-120352000D02*
X76629000Y-111312000D01*
X76629000Y-111312000D02*
X102949000Y-111312000D01*
X102949000Y-111312000D02*
X102949000Y-121352000D01*
X77629000Y-121352000D02*
X102949000Y-121352000D01*
X77629000Y-121352000D02*
X76629000Y-120352000D01*
X125889000Y-121352000D02*
X124889000Y-120352000D01*
X125889000Y-121352000D02*
X151209000Y-121352000D01*
X151209000Y-111312000D02*
X151209000Y-121352000D01*
X124889000Y-111312000D02*
X151209000Y-111312000D01*
X124889000Y-120352000D02*
X124889000Y-111312000D01*
X75809000Y-119015000D02*
X75809000Y-121015000D01*
X74559000Y-119015000D02*
X75809000Y-119015000D01*
X74559000Y-121015000D02*
X74559000Y-119015000D01*
X75809000Y-121015000D02*
X74559000Y-121015000D01*
X153279000Y-121015000D02*
X152029000Y-121015000D01*
X152029000Y-121015000D02*
X152029000Y-119015000D01*
X152029000Y-119015000D02*
X153279000Y-119015000D01*
X153279000Y-119015000D02*
X153279000Y-121015000D01*
X124069000Y-121015000D02*
X122819000Y-121015000D01*
X122819000Y-121015000D02*
X122819000Y-119015000D01*
X122819000Y-119015000D02*
X124069000Y-119015000D01*
X124069000Y-119015000D02*
X124069000Y-121015000D01*
D11*
X73898000Y-123444000D02*
G75*
G03*
X73898000Y-123444000I-1000000J0D01*
G01*
X171434000Y-123444000D02*
G75*
G03*
X171434000Y-123444000I-1000000J0D01*
G01*
X168894000Y-108966000D02*
G75*
G03*
X168894000Y-108966000I-1000000J0D01*
G01*
X74406000Y-108966000D02*
G75*
G03*
X74406000Y-108966000I-1000000J0D01*
G01*
X73898000Y-125984000D02*
G75*
G03*
X73898000Y-125984000I-1000000J0D01*
G01*
X171434000Y-125984000D02*
G75*
G03*
X171434000Y-125984000I-1000000J0D01*
G01*
X71866000Y-108966000D02*
G75*
G03*
X71866000Y-108966000I-1000000J0D01*
G01*
X171434000Y-108966000D02*
G75*
G03*
X171434000Y-108966000I-1000000J0D01*
G01*
D10*
X105019000Y-119015000D02*
X105019000Y-121015000D01*
X103769000Y-119015000D02*
X105019000Y-119015000D01*
X103769000Y-121015000D02*
X103769000Y-119015000D01*
X105019000Y-121015000D02*
X103769000Y-121015000D01*
D12*
X165272666Y-122709214D02*
X165260571Y-122721309D01*
X165224285Y-122733404D01*
X165200095Y-122733404D01*
X165163809Y-122721309D01*
X165139619Y-122697119D01*
X165127523Y-122672928D01*
X165115428Y-122624547D01*
X165115428Y-122588261D01*
X165127523Y-122539880D01*
X165139619Y-122515690D01*
X165163809Y-122491500D01*
X165200095Y-122479404D01*
X165224285Y-122479404D01*
X165260571Y-122491500D01*
X165272666Y-122503595D01*
X165490380Y-122479404D02*
X165442000Y-122479404D01*
X165417809Y-122491500D01*
X165405714Y-122503595D01*
X165381523Y-122539880D01*
X165369428Y-122588261D01*
X165369428Y-122685023D01*
X165381523Y-122709214D01*
X165393619Y-122721309D01*
X165417809Y-122733404D01*
X165466190Y-122733404D01*
X165490380Y-122721309D01*
X165502476Y-122709214D01*
X165514571Y-122685023D01*
X165514571Y-122624547D01*
X165502476Y-122600357D01*
X165490380Y-122588261D01*
X165466190Y-122576166D01*
X165417809Y-122576166D01*
X165393619Y-122588261D01*
X165381523Y-122600357D01*
X165369428Y-122624547D01*
X165006571Y-122853595D02*
X165018666Y-122841500D01*
X165042857Y-122829404D01*
X165103333Y-122829404D01*
X165127523Y-122841500D01*
X165139619Y-122853595D01*
X165151714Y-122877785D01*
X165151714Y-122901976D01*
X165139619Y-122938261D01*
X164994476Y-123083404D01*
X165151714Y-123083404D01*
X165369428Y-122914071D02*
X165369428Y-123083404D01*
X165260571Y-122914071D02*
X165260571Y-123047119D01*
X165272666Y-123071309D01*
X165296857Y-123083404D01*
X165333142Y-123083404D01*
X165357333Y-123071309D01*
X165369428Y-123059214D01*
X165478285Y-122853595D02*
X165490380Y-122841500D01*
X165514571Y-122829404D01*
X165575047Y-122829404D01*
X165599238Y-122841500D01*
X165611333Y-122853595D01*
X165623428Y-122877785D01*
X165623428Y-122901976D01*
X165611333Y-122938261D01*
X165466190Y-123083404D01*
X165623428Y-123083404D01*
X111932666Y-122709214D02*
X111920571Y-122721309D01*
X111884285Y-122733404D01*
X111860095Y-122733404D01*
X111823809Y-122721309D01*
X111799619Y-122697119D01*
X111787523Y-122672928D01*
X111775428Y-122624547D01*
X111775428Y-122588261D01*
X111787523Y-122539880D01*
X111799619Y-122515690D01*
X111823809Y-122491500D01*
X111860095Y-122479404D01*
X111884285Y-122479404D01*
X111920571Y-122491500D01*
X111932666Y-122503595D01*
X112162476Y-122479404D02*
X112041523Y-122479404D01*
X112029428Y-122600357D01*
X112041523Y-122588261D01*
X112065714Y-122576166D01*
X112126190Y-122576166D01*
X112150380Y-122588261D01*
X112162476Y-122600357D01*
X112174571Y-122624547D01*
X112174571Y-122685023D01*
X112162476Y-122709214D01*
X112150380Y-122721309D01*
X112126190Y-122733404D01*
X112065714Y-122733404D01*
X112041523Y-122721309D01*
X112029428Y-122709214D01*
X111666571Y-122853595D02*
X111678666Y-122841500D01*
X111702857Y-122829404D01*
X111763333Y-122829404D01*
X111787523Y-122841500D01*
X111799619Y-122853595D01*
X111811714Y-122877785D01*
X111811714Y-122901976D01*
X111799619Y-122938261D01*
X111654476Y-123083404D01*
X111811714Y-123083404D01*
X112029428Y-122914071D02*
X112029428Y-123083404D01*
X111920571Y-122914071D02*
X111920571Y-123047119D01*
X111932666Y-123071309D01*
X111956857Y-123083404D01*
X111993142Y-123083404D01*
X112017333Y-123071309D01*
X112029428Y-123059214D01*
X112138285Y-122853595D02*
X112150380Y-122841500D01*
X112174571Y-122829404D01*
X112235047Y-122829404D01*
X112259238Y-122841500D01*
X112271333Y-122853595D01*
X112283428Y-122877785D01*
X112283428Y-122901976D01*
X112271333Y-122938261D01*
X112126190Y-123083404D01*
X112283428Y-123083404D01*
D13*
X89169723Y-115886895D02*
X89169723Y-116544876D01*
X89208428Y-116622285D01*
X89247133Y-116660990D01*
X89324542Y-116699695D01*
X89479361Y-116699695D01*
X89556771Y-116660990D01*
X89595476Y-116622285D01*
X89634180Y-116544876D01*
X89634180Y-115886895D01*
X90446980Y-116699695D02*
X89982523Y-116699695D01*
X90214752Y-116699695D02*
X90214752Y-115886895D01*
X90137342Y-116003009D01*
X90059933Y-116080419D01*
X89982523Y-116119123D01*
D14*
X88422238Y-115223142D02*
X88422238Y-115561809D01*
X88301285Y-115029619D02*
X88180333Y-115392476D01*
X88494809Y-115392476D01*
X88664142Y-115102190D02*
X88688333Y-115078000D01*
X88736714Y-115053809D01*
X88857666Y-115053809D01*
X88906047Y-115078000D01*
X88930238Y-115102190D01*
X88954428Y-115150571D01*
X88954428Y-115198952D01*
X88930238Y-115271523D01*
X88639952Y-115561809D01*
X88954428Y-115561809D01*
X89462428Y-115513428D02*
X89438238Y-115537619D01*
X89365666Y-115561809D01*
X89317285Y-115561809D01*
X89244714Y-115537619D01*
X89196333Y-115489238D01*
X89172142Y-115440857D01*
X89147952Y-115344095D01*
X89147952Y-115271523D01*
X89172142Y-115174761D01*
X89196333Y-115126380D01*
X89244714Y-115078000D01*
X89317285Y-115053809D01*
X89365666Y-115053809D01*
X89438238Y-115078000D01*
X89462428Y-115102190D01*
X89752714Y-115271523D02*
X89704333Y-115247333D01*
X89680142Y-115223142D01*
X89655952Y-115174761D01*
X89655952Y-115150571D01*
X89680142Y-115102190D01*
X89704333Y-115078000D01*
X89752714Y-115053809D01*
X89849476Y-115053809D01*
X89897857Y-115078000D01*
X89922047Y-115102190D01*
X89946238Y-115150571D01*
X89946238Y-115174761D01*
X89922047Y-115223142D01*
X89897857Y-115247333D01*
X89849476Y-115271523D01*
X89752714Y-115271523D01*
X89704333Y-115295714D01*
X89680142Y-115319904D01*
X89655952Y-115368285D01*
X89655952Y-115465047D01*
X89680142Y-115513428D01*
X89704333Y-115537619D01*
X89752714Y-115561809D01*
X89849476Y-115561809D01*
X89897857Y-115537619D01*
X89922047Y-115513428D01*
X89946238Y-115465047D01*
X89946238Y-115368285D01*
X89922047Y-115319904D01*
X89897857Y-115295714D01*
X89849476Y-115271523D01*
X90139761Y-115102190D02*
X90163952Y-115078000D01*
X90212333Y-115053809D01*
X90333285Y-115053809D01*
X90381666Y-115078000D01*
X90405857Y-115102190D01*
X90430047Y-115150571D01*
X90430047Y-115198952D01*
X90405857Y-115271523D01*
X90115571Y-115561809D01*
X90430047Y-115561809D01*
X90889666Y-115053809D02*
X90647761Y-115053809D01*
X90623571Y-115295714D01*
X90647761Y-115271523D01*
X90696142Y-115247333D01*
X90817095Y-115247333D01*
X90865476Y-115271523D01*
X90889666Y-115295714D01*
X90913857Y-115344095D01*
X90913857Y-115465047D01*
X90889666Y-115513428D01*
X90865476Y-115537619D01*
X90817095Y-115561809D01*
X90696142Y-115561809D01*
X90647761Y-115537619D01*
X90623571Y-115513428D01*
X91373476Y-115053809D02*
X91131571Y-115053809D01*
X91107380Y-115295714D01*
X91131571Y-115271523D01*
X91179952Y-115247333D01*
X91300904Y-115247333D01*
X91349285Y-115271523D01*
X91373476Y-115295714D01*
X91397666Y-115344095D01*
X91397666Y-115465047D01*
X91373476Y-115513428D01*
X91349285Y-115537619D01*
X91300904Y-115561809D01*
X91179952Y-115561809D01*
X91131571Y-115537619D01*
X91107380Y-115513428D01*
D10*
X118613466Y-128179580D02*
X118946800Y-129179580D01*
X119280133Y-128179580D01*
X120184895Y-129179580D02*
X119851561Y-128703390D01*
X119613466Y-129179580D02*
X119613466Y-128179580D01*
X119994419Y-128179580D01*
X120089657Y-128227200D01*
X120137276Y-128274819D01*
X120184895Y-128370057D01*
X120184895Y-128512914D01*
X120137276Y-128608152D01*
X120089657Y-128655771D01*
X119994419Y-128703390D01*
X119613466Y-128703390D01*
X120565847Y-128893866D02*
X121042038Y-128893866D01*
X120470609Y-129179580D02*
X120803942Y-128179580D01*
X121137276Y-129179580D01*
X121470609Y-129179580D02*
X121470609Y-128179580D01*
X121803942Y-128893866D01*
X122137276Y-128179580D01*
X122137276Y-129179580D01*
D13*
X137429723Y-115886895D02*
X137429723Y-116544876D01*
X137468428Y-116622285D01*
X137507133Y-116660990D01*
X137584542Y-116699695D01*
X137739361Y-116699695D01*
X137816771Y-116660990D01*
X137855476Y-116622285D01*
X137894180Y-116544876D01*
X137894180Y-115886895D01*
X138242523Y-115964304D02*
X138281228Y-115925600D01*
X138358638Y-115886895D01*
X138552161Y-115886895D01*
X138629571Y-115925600D01*
X138668276Y-115964304D01*
X138706980Y-116041714D01*
X138706980Y-116119123D01*
X138668276Y-116235238D01*
X138203819Y-116699695D01*
X138706980Y-116699695D01*
D14*
X136682238Y-115223142D02*
X136682238Y-115561809D01*
X136561285Y-115029619D02*
X136440333Y-115392476D01*
X136754809Y-115392476D01*
X136924142Y-115102190D02*
X136948333Y-115078000D01*
X136996714Y-115053809D01*
X137117666Y-115053809D01*
X137166047Y-115078000D01*
X137190238Y-115102190D01*
X137214428Y-115150571D01*
X137214428Y-115198952D01*
X137190238Y-115271523D01*
X136899952Y-115561809D01*
X137214428Y-115561809D01*
X137722428Y-115513428D02*
X137698238Y-115537619D01*
X137625666Y-115561809D01*
X137577285Y-115561809D01*
X137504714Y-115537619D01*
X137456333Y-115489238D01*
X137432142Y-115440857D01*
X137407952Y-115344095D01*
X137407952Y-115271523D01*
X137432142Y-115174761D01*
X137456333Y-115126380D01*
X137504714Y-115078000D01*
X137577285Y-115053809D01*
X137625666Y-115053809D01*
X137698238Y-115078000D01*
X137722428Y-115102190D01*
X138012714Y-115271523D02*
X137964333Y-115247333D01*
X137940142Y-115223142D01*
X137915952Y-115174761D01*
X137915952Y-115150571D01*
X137940142Y-115102190D01*
X137964333Y-115078000D01*
X138012714Y-115053809D01*
X138109476Y-115053809D01*
X138157857Y-115078000D01*
X138182047Y-115102190D01*
X138206238Y-115150571D01*
X138206238Y-115174761D01*
X138182047Y-115223142D01*
X138157857Y-115247333D01*
X138109476Y-115271523D01*
X138012714Y-115271523D01*
X137964333Y-115295714D01*
X137940142Y-115319904D01*
X137915952Y-115368285D01*
X137915952Y-115465047D01*
X137940142Y-115513428D01*
X137964333Y-115537619D01*
X138012714Y-115561809D01*
X138109476Y-115561809D01*
X138157857Y-115537619D01*
X138182047Y-115513428D01*
X138206238Y-115465047D01*
X138206238Y-115368285D01*
X138182047Y-115319904D01*
X138157857Y-115295714D01*
X138109476Y-115271523D01*
X138399761Y-115102190D02*
X138423952Y-115078000D01*
X138472333Y-115053809D01*
X138593285Y-115053809D01*
X138641666Y-115078000D01*
X138665857Y-115102190D01*
X138690047Y-115150571D01*
X138690047Y-115198952D01*
X138665857Y-115271523D01*
X138375571Y-115561809D01*
X138690047Y-115561809D01*
X139149666Y-115053809D02*
X138907761Y-115053809D01*
X138883571Y-115295714D01*
X138907761Y-115271523D01*
X138956142Y-115247333D01*
X139077095Y-115247333D01*
X139125476Y-115271523D01*
X139149666Y-115295714D01*
X139173857Y-115344095D01*
X139173857Y-115465047D01*
X139149666Y-115513428D01*
X139125476Y-115537619D01*
X139077095Y-115561809D01*
X138956142Y-115561809D01*
X138907761Y-115537619D01*
X138883571Y-115513428D01*
X139633476Y-115053809D02*
X139391571Y-115053809D01*
X139367380Y-115295714D01*
X139391571Y-115271523D01*
X139439952Y-115247333D01*
X139560904Y-115247333D01*
X139609285Y-115271523D01*
X139633476Y-115295714D01*
X139657666Y-115344095D01*
X139657666Y-115465047D01*
X139633476Y-115513428D01*
X139609285Y-115537619D01*
X139560904Y-115561809D01*
X139439952Y-115561809D01*
X139391571Y-115537619D01*
X139367380Y-115513428D01*
D12*
X75274714Y-120057333D02*
X75286809Y-120069428D01*
X75298904Y-120105714D01*
X75298904Y-120129904D01*
X75286809Y-120166190D01*
X75262619Y-120190380D01*
X75238428Y-120202476D01*
X75190047Y-120214571D01*
X75153761Y-120214571D01*
X75105380Y-120202476D01*
X75081190Y-120190380D01*
X75057000Y-120166190D01*
X75044904Y-120129904D01*
X75044904Y-120105714D01*
X75057000Y-120069428D01*
X75069095Y-120057333D01*
X75298904Y-119815428D02*
X75298904Y-119960571D01*
X75298904Y-119888000D02*
X75044904Y-119888000D01*
X75081190Y-119912190D01*
X75105380Y-119936380D01*
X75117476Y-119960571D01*
X75419095Y-120323428D02*
X75407000Y-120311333D01*
X75394904Y-120287142D01*
X75394904Y-120226666D01*
X75407000Y-120202476D01*
X75419095Y-120190380D01*
X75443285Y-120178285D01*
X75467476Y-120178285D01*
X75503761Y-120190380D01*
X75648904Y-120335523D01*
X75648904Y-120178285D01*
X75479571Y-119960571D02*
X75648904Y-119960571D01*
X75479571Y-120069428D02*
X75612619Y-120069428D01*
X75636809Y-120057333D01*
X75648904Y-120033142D01*
X75648904Y-119996857D01*
X75636809Y-119972666D01*
X75624714Y-119960571D01*
X75419095Y-119851714D02*
X75407000Y-119839619D01*
X75394904Y-119815428D01*
X75394904Y-119754952D01*
X75407000Y-119730761D01*
X75419095Y-119718666D01*
X75443285Y-119706571D01*
X75467476Y-119706571D01*
X75503761Y-119718666D01*
X75648904Y-119863809D01*
X75648904Y-119706571D01*
X152744714Y-120057333D02*
X152756809Y-120069428D01*
X152768904Y-120105714D01*
X152768904Y-120129904D01*
X152756809Y-120166190D01*
X152732619Y-120190380D01*
X152708428Y-120202476D01*
X152660047Y-120214571D01*
X152623761Y-120214571D01*
X152575380Y-120202476D01*
X152551190Y-120190380D01*
X152527000Y-120166190D01*
X152514904Y-120129904D01*
X152514904Y-120105714D01*
X152527000Y-120069428D01*
X152539095Y-120057333D01*
X152599571Y-119839619D02*
X152768904Y-119839619D01*
X152502809Y-119900095D02*
X152684238Y-119960571D01*
X152684238Y-119803333D01*
X152889095Y-120323428D02*
X152877000Y-120311333D01*
X152864904Y-120287142D01*
X152864904Y-120226666D01*
X152877000Y-120202476D01*
X152889095Y-120190380D01*
X152913285Y-120178285D01*
X152937476Y-120178285D01*
X152973761Y-120190380D01*
X153118904Y-120335523D01*
X153118904Y-120178285D01*
X152949571Y-119960571D02*
X153118904Y-119960571D01*
X152949571Y-120069428D02*
X153082619Y-120069428D01*
X153106809Y-120057333D01*
X153118904Y-120033142D01*
X153118904Y-119996857D01*
X153106809Y-119972666D01*
X153094714Y-119960571D01*
X152889095Y-119851714D02*
X152877000Y-119839619D01*
X152864904Y-119815428D01*
X152864904Y-119754952D01*
X152877000Y-119730761D01*
X152889095Y-119718666D01*
X152913285Y-119706571D01*
X152937476Y-119706571D01*
X152973761Y-119718666D01*
X153118904Y-119863809D01*
X153118904Y-119706571D01*
X123534714Y-120057333D02*
X123546809Y-120069428D01*
X123558904Y-120105714D01*
X123558904Y-120129904D01*
X123546809Y-120166190D01*
X123522619Y-120190380D01*
X123498428Y-120202476D01*
X123450047Y-120214571D01*
X123413761Y-120214571D01*
X123365380Y-120202476D01*
X123341190Y-120190380D01*
X123317000Y-120166190D01*
X123304904Y-120129904D01*
X123304904Y-120105714D01*
X123317000Y-120069428D01*
X123329095Y-120057333D01*
X123304904Y-119972666D02*
X123304904Y-119815428D01*
X123401666Y-119900095D01*
X123401666Y-119863809D01*
X123413761Y-119839619D01*
X123425857Y-119827523D01*
X123450047Y-119815428D01*
X123510523Y-119815428D01*
X123534714Y-119827523D01*
X123546809Y-119839619D01*
X123558904Y-119863809D01*
X123558904Y-119936380D01*
X123546809Y-119960571D01*
X123534714Y-119972666D01*
X123679095Y-120323428D02*
X123667000Y-120311333D01*
X123654904Y-120287142D01*
X123654904Y-120226666D01*
X123667000Y-120202476D01*
X123679095Y-120190380D01*
X123703285Y-120178285D01*
X123727476Y-120178285D01*
X123763761Y-120190380D01*
X123908904Y-120335523D01*
X123908904Y-120178285D01*
X123739571Y-119960571D02*
X123908904Y-119960571D01*
X123739571Y-120069428D02*
X123872619Y-120069428D01*
X123896809Y-120057333D01*
X123908904Y-120033142D01*
X123908904Y-119996857D01*
X123896809Y-119972666D01*
X123884714Y-119960571D01*
X123679095Y-119851714D02*
X123667000Y-119839619D01*
X123654904Y-119815428D01*
X123654904Y-119754952D01*
X123667000Y-119730761D01*
X123679095Y-119718666D01*
X123703285Y-119706571D01*
X123727476Y-119706571D01*
X123763761Y-119718666D01*
X123908904Y-119863809D01*
X123908904Y-119706571D01*
D11*
X72469428Y-123415428D02*
X72336095Y-123415428D01*
X72336095Y-123624952D02*
X72336095Y-123224952D01*
X72526571Y-123224952D01*
X72678952Y-123624952D02*
X72678952Y-123224952D01*
X72869428Y-123624952D02*
X72869428Y-123224952D01*
X72964666Y-123224952D01*
X73021809Y-123244000D01*
X73059904Y-123282095D01*
X73078952Y-123320190D01*
X73098000Y-123396380D01*
X73098000Y-123453523D01*
X73078952Y-123529714D01*
X73059904Y-123567809D01*
X73021809Y-123605904D01*
X72964666Y-123624952D01*
X72869428Y-123624952D01*
X73250380Y-123263047D02*
X73269428Y-123244000D01*
X73307523Y-123224952D01*
X73402761Y-123224952D01*
X73440857Y-123244000D01*
X73459904Y-123263047D01*
X73478952Y-123301142D01*
X73478952Y-123339238D01*
X73459904Y-123396380D01*
X73231333Y-123624952D01*
X73478952Y-123624952D01*
X170005428Y-123415428D02*
X169872095Y-123415428D01*
X169872095Y-123624952D02*
X169872095Y-123224952D01*
X170062571Y-123224952D01*
X170214952Y-123624952D02*
X170214952Y-123224952D01*
X170405428Y-123624952D02*
X170405428Y-123224952D01*
X170500666Y-123224952D01*
X170557809Y-123244000D01*
X170595904Y-123282095D01*
X170614952Y-123320190D01*
X170634000Y-123396380D01*
X170634000Y-123453523D01*
X170614952Y-123529714D01*
X170595904Y-123567809D01*
X170557809Y-123605904D01*
X170500666Y-123624952D01*
X170405428Y-123624952D01*
X170767333Y-123224952D02*
X171014952Y-123224952D01*
X170881619Y-123377333D01*
X170938761Y-123377333D01*
X170976857Y-123396380D01*
X170995904Y-123415428D01*
X171014952Y-123453523D01*
X171014952Y-123548761D01*
X170995904Y-123586857D01*
X170976857Y-123605904D01*
X170938761Y-123624952D01*
X170824476Y-123624952D01*
X170786380Y-123605904D01*
X170767333Y-123586857D01*
X167465428Y-108937428D02*
X167332095Y-108937428D01*
X167332095Y-109146952D02*
X167332095Y-108746952D01*
X167522571Y-108746952D01*
X167674952Y-109146952D02*
X167674952Y-108746952D01*
X167865428Y-109146952D02*
X167865428Y-108746952D01*
X167960666Y-108746952D01*
X168017809Y-108766000D01*
X168055904Y-108804095D01*
X168074952Y-108842190D01*
X168094000Y-108918380D01*
X168094000Y-108975523D01*
X168074952Y-109051714D01*
X168055904Y-109089809D01*
X168017809Y-109127904D01*
X167960666Y-109146952D01*
X167865428Y-109146952D01*
X168436857Y-108880285D02*
X168436857Y-109146952D01*
X168341619Y-108727904D02*
X168246380Y-109013619D01*
X168494000Y-109013619D01*
X72977428Y-108937428D02*
X72844095Y-108937428D01*
X72844095Y-109146952D02*
X72844095Y-108746952D01*
X73034571Y-108746952D01*
X73186952Y-109146952D02*
X73186952Y-108746952D01*
X73377428Y-109146952D02*
X73377428Y-108746952D01*
X73472666Y-108746952D01*
X73529809Y-108766000D01*
X73567904Y-108804095D01*
X73586952Y-108842190D01*
X73606000Y-108918380D01*
X73606000Y-108975523D01*
X73586952Y-109051714D01*
X73567904Y-109089809D01*
X73529809Y-109127904D01*
X73472666Y-109146952D01*
X73377428Y-109146952D01*
X73986952Y-109146952D02*
X73758380Y-109146952D01*
X73872666Y-109146952D02*
X73872666Y-108746952D01*
X73834571Y-108804095D01*
X73796476Y-108842190D01*
X73758380Y-108861238D01*
X72593238Y-126164952D02*
X72593238Y-125764952D01*
X72593238Y-125955428D02*
X72821809Y-125955428D01*
X72821809Y-126164952D02*
X72821809Y-125764952D01*
X72993238Y-125803047D02*
X73012285Y-125784000D01*
X73050380Y-125764952D01*
X73145619Y-125764952D01*
X73183714Y-125784000D01*
X73202761Y-125803047D01*
X73221809Y-125841142D01*
X73221809Y-125879238D01*
X73202761Y-125936380D01*
X72974190Y-126164952D01*
X73221809Y-126164952D01*
X170129238Y-126164952D02*
X170129238Y-125764952D01*
X170129238Y-125955428D02*
X170357809Y-125955428D01*
X170357809Y-126164952D02*
X170357809Y-125764952D01*
X170510190Y-125764952D02*
X170757809Y-125764952D01*
X170624476Y-125917333D01*
X170681619Y-125917333D01*
X170719714Y-125936380D01*
X170738761Y-125955428D01*
X170757809Y-125993523D01*
X170757809Y-126088761D01*
X170738761Y-126126857D01*
X170719714Y-126145904D01*
X170681619Y-126164952D01*
X170567333Y-126164952D01*
X170529238Y-126145904D01*
X170510190Y-126126857D01*
X70561238Y-109146952D02*
X70561238Y-108746952D01*
X70561238Y-108937428D02*
X70789809Y-108937428D01*
X70789809Y-109146952D02*
X70789809Y-108746952D01*
X71189809Y-109146952D02*
X70961238Y-109146952D01*
X71075523Y-109146952D02*
X71075523Y-108746952D01*
X71037428Y-108804095D01*
X70999333Y-108842190D01*
X70961238Y-108861238D01*
X170129238Y-109146952D02*
X170129238Y-108746952D01*
X170129238Y-108937428D02*
X170357809Y-108937428D01*
X170357809Y-109146952D02*
X170357809Y-108746952D01*
X170719714Y-108880285D02*
X170719714Y-109146952D01*
X170624476Y-108727904D02*
X170529238Y-109013619D01*
X170776857Y-109013619D01*
D12*
X104484714Y-120057333D02*
X104496809Y-120069428D01*
X104508904Y-120105714D01*
X104508904Y-120129904D01*
X104496809Y-120166190D01*
X104472619Y-120190380D01*
X104448428Y-120202476D01*
X104400047Y-120214571D01*
X104363761Y-120214571D01*
X104315380Y-120202476D01*
X104291190Y-120190380D01*
X104267000Y-120166190D01*
X104254904Y-120129904D01*
X104254904Y-120105714D01*
X104267000Y-120069428D01*
X104279095Y-120057333D01*
X104279095Y-119960571D02*
X104267000Y-119948476D01*
X104254904Y-119924285D01*
X104254904Y-119863809D01*
X104267000Y-119839619D01*
X104279095Y-119827523D01*
X104303285Y-119815428D01*
X104327476Y-119815428D01*
X104363761Y-119827523D01*
X104508904Y-119972666D01*
X104508904Y-119815428D01*
X104629095Y-120323428D02*
X104617000Y-120311333D01*
X104604904Y-120287142D01*
X104604904Y-120226666D01*
X104617000Y-120202476D01*
X104629095Y-120190380D01*
X104653285Y-120178285D01*
X104677476Y-120178285D01*
X104713761Y-120190380D01*
X104858904Y-120335523D01*
X104858904Y-120178285D01*
X104689571Y-119960571D02*
X104858904Y-119960571D01*
X104689571Y-120069428D02*
X104822619Y-120069428D01*
X104846809Y-120057333D01*
X104858904Y-120033142D01*
X104858904Y-119996857D01*
X104846809Y-119972666D01*
X104834714Y-119960571D01*
X104629095Y-119851714D02*
X104617000Y-119839619D01*
X104604904Y-119815428D01*
X104604904Y-119754952D01*
X104617000Y-119730761D01*
X104629095Y-119718666D01*
X104653285Y-119706571D01*
X104677476Y-119706571D01*
X104713761Y-119718666D01*
X104858904Y-119863809D01*
X104858904Y-119706571D01*
M02*
