G04 #@! TF.GenerationSoftware,KiCad,Pcbnew,(5.1.10-1-10_14)*
G04 #@! TF.CreationDate,2021-07-01T18:54:41-04:00*
G04 #@! TF.ProjectId,MacVRAMSIMM,4d616356-5241-44d5-9349-4d4d2e6b6963,1.0*
G04 #@! TF.SameCoordinates,Original*
G04 #@! TF.FileFunction,Legend,Bot*
G04 #@! TF.FilePolarity,Positive*
%FSLAX46Y46*%
G04 Gerber Fmt 4.6, Leading zero omitted, Abs format (unit mm)*
G04 Created by KiCad (PCBNEW (5.1.10-1-10_14)) date 2021-07-01 18:54:41*
%MOMM*%
%LPD*%
G01*
G04 APERTURE LIST*
%ADD10C,0.203200*%
%ADD11C,0.300000*%
%ADD12C,0.225000*%
%ADD13C,0.175000*%
%ADD14C,2.150000*%
G04 APERTURE END LIST*
D10*
X168891857Y-124192695D02*
X168349990Y-124192695D01*
X168891857Y-125005495D01*
X168349990Y-125005495D01*
X168040352Y-125005495D02*
X168040352Y-124192695D01*
X167575895Y-125005495D02*
X167924238Y-124541038D01*
X167575895Y-124192695D02*
X168040352Y-124657152D01*
X167188847Y-124966790D02*
X167188847Y-125005495D01*
X167227552Y-125082904D01*
X167266257Y-125121609D01*
X168156466Y-125653800D02*
X168233876Y-125615095D01*
X168349990Y-125615095D01*
X168466104Y-125653800D01*
X168543514Y-125731209D01*
X168582219Y-125808619D01*
X168620923Y-125963438D01*
X168620923Y-126079552D01*
X168582219Y-126234371D01*
X168543514Y-126311780D01*
X168466104Y-126389190D01*
X168349990Y-126427895D01*
X168272580Y-126427895D01*
X168156466Y-126389190D01*
X168117761Y-126350485D01*
X168117761Y-126079552D01*
X168272580Y-126079552D01*
X167498485Y-126002142D02*
X167769419Y-126002142D01*
X167769419Y-126427895D02*
X167769419Y-125615095D01*
X167382371Y-125615095D01*
D11*
X146590786Y-117280571D02*
X146590786Y-118280571D01*
X146947928Y-116709142D02*
X147305071Y-117780571D01*
X146376500Y-117780571D01*
X145162214Y-117280571D02*
X145162214Y-118280571D01*
X145519357Y-116709142D02*
X145876500Y-117780571D01*
X144947928Y-117780571D01*
X144090786Y-116780571D02*
X143947928Y-116780571D01*
X143805071Y-116852000D01*
X143733643Y-116923428D01*
X143662214Y-117066285D01*
X143590786Y-117352000D01*
X143590786Y-117709142D01*
X143662214Y-117994857D01*
X143733643Y-118137714D01*
X143805071Y-118209142D01*
X143947928Y-118280571D01*
X144090786Y-118280571D01*
X144233643Y-118209142D01*
X144305071Y-118137714D01*
X144376500Y-117994857D01*
X144447928Y-117709142D01*
X144447928Y-117352000D01*
X144376500Y-117066285D01*
X144305071Y-116923428D01*
X144233643Y-116852000D01*
X144090786Y-116780571D01*
X142305071Y-117280571D02*
X142305071Y-118280571D01*
X142662214Y-116709142D02*
X143019357Y-117780571D01*
X142090786Y-117780571D01*
X141590786Y-117852000D02*
X140876500Y-117852000D01*
X141733643Y-118280571D02*
X141233643Y-116780571D01*
X140733643Y-118280571D01*
X104902000Y-114626571D02*
X104829428Y-114554000D01*
X104684285Y-114481428D01*
X104321428Y-114481428D01*
X104176285Y-114554000D01*
X104103714Y-114626571D01*
X104031142Y-114771714D01*
X104031142Y-114916857D01*
X104103714Y-115134571D01*
X104974571Y-116005428D01*
X104031142Y-116005428D01*
X102652285Y-114481428D02*
X103378000Y-114481428D01*
X103450571Y-115207142D01*
X103378000Y-115134571D01*
X103232857Y-115062000D01*
X102870000Y-115062000D01*
X102724857Y-115134571D01*
X102652285Y-115207142D01*
X102579714Y-115352285D01*
X102579714Y-115715142D01*
X102652285Y-115860285D01*
X102724857Y-115932857D01*
X102870000Y-116005428D01*
X103232857Y-116005428D01*
X103378000Y-115932857D01*
X103450571Y-115860285D01*
X101273428Y-114481428D02*
X101563714Y-114481428D01*
X101708857Y-114554000D01*
X101781428Y-114626571D01*
X101926571Y-114844285D01*
X101999142Y-115134571D01*
X101999142Y-115715142D01*
X101926571Y-115860285D01*
X101854000Y-115932857D01*
X101708857Y-116005428D01*
X101418571Y-116005428D01*
X101273428Y-115932857D01*
X101200857Y-115860285D01*
X101128285Y-115715142D01*
X101128285Y-115352285D01*
X101200857Y-115207142D01*
X101273428Y-115134571D01*
X101418571Y-115062000D01*
X101708857Y-115062000D01*
X101854000Y-115134571D01*
X101926571Y-115207142D01*
X101999142Y-115352285D01*
X99314000Y-116005428D02*
X99314000Y-114481428D01*
X99168857Y-115424857D02*
X98733428Y-116005428D01*
X98733428Y-114989428D02*
X99314000Y-115570000D01*
X97572285Y-115207142D02*
X97354571Y-115279714D01*
X97282000Y-115352285D01*
X97209428Y-115497428D01*
X97209428Y-115715142D01*
X97282000Y-115860285D01*
X97354571Y-115932857D01*
X97499714Y-116005428D01*
X98080285Y-116005428D01*
X98080285Y-114481428D01*
X97572285Y-114481428D01*
X97427142Y-114554000D01*
X97354571Y-114626571D01*
X97282000Y-114771714D01*
X97282000Y-114916857D01*
X97354571Y-115062000D01*
X97427142Y-115134571D01*
X97572285Y-115207142D01*
X98080285Y-115207142D01*
X95612857Y-114481428D02*
X95104857Y-116005428D01*
X94596857Y-114481428D01*
X93218000Y-116005428D02*
X93726000Y-115279714D01*
X94088857Y-116005428D02*
X94088857Y-114481428D01*
X93508285Y-114481428D01*
X93363142Y-114554000D01*
X93290571Y-114626571D01*
X93218000Y-114771714D01*
X93218000Y-114989428D01*
X93290571Y-115134571D01*
X93363142Y-115207142D01*
X93508285Y-115279714D01*
X94088857Y-115279714D01*
X92637428Y-115570000D02*
X91911714Y-115570000D01*
X92782571Y-116005428D02*
X92274571Y-114481428D01*
X91766571Y-116005428D01*
X91258571Y-116005428D02*
X91258571Y-114481428D01*
X90750571Y-115570000D01*
X90242571Y-114481428D01*
X90242571Y-116005428D01*
D10*
X102688571Y-117409685D02*
X102301523Y-117409685D01*
X102543428Y-118087019D02*
X102543428Y-117216161D01*
X102495047Y-117119400D01*
X102398285Y-117071019D01*
X102301523Y-117071019D01*
X101817714Y-118087019D02*
X101914476Y-118038638D01*
X101962857Y-117990257D01*
X102011238Y-117893495D01*
X102011238Y-117603209D01*
X101962857Y-117506447D01*
X101914476Y-117458066D01*
X101817714Y-117409685D01*
X101672571Y-117409685D01*
X101575809Y-117458066D01*
X101527428Y-117506447D01*
X101479047Y-117603209D01*
X101479047Y-117893495D01*
X101527428Y-117990257D01*
X101575809Y-118038638D01*
X101672571Y-118087019D01*
X101817714Y-118087019D01*
X101043619Y-118087019D02*
X101043619Y-117409685D01*
X101043619Y-117603209D02*
X100995238Y-117506447D01*
X100946857Y-117458066D01*
X100850095Y-117409685D01*
X100753333Y-117409685D01*
X99640571Y-118087019D02*
X99640571Y-117071019D01*
X99301904Y-117796733D01*
X98963238Y-117071019D01*
X98963238Y-118087019D01*
X98044000Y-118087019D02*
X98044000Y-117554828D01*
X98092380Y-117458066D01*
X98189142Y-117409685D01*
X98382666Y-117409685D01*
X98479428Y-117458066D01*
X98044000Y-118038638D02*
X98140761Y-118087019D01*
X98382666Y-118087019D01*
X98479428Y-118038638D01*
X98527809Y-117941876D01*
X98527809Y-117845114D01*
X98479428Y-117748352D01*
X98382666Y-117699971D01*
X98140761Y-117699971D01*
X98044000Y-117651590D01*
X97124761Y-118038638D02*
X97221523Y-118087019D01*
X97415047Y-118087019D01*
X97511809Y-118038638D01*
X97560190Y-117990257D01*
X97608571Y-117893495D01*
X97608571Y-117603209D01*
X97560190Y-117506447D01*
X97511809Y-117458066D01*
X97415047Y-117409685D01*
X97221523Y-117409685D01*
X97124761Y-117458066D01*
X96689333Y-118087019D02*
X96689333Y-117409685D01*
X96689333Y-117071019D02*
X96737714Y-117119400D01*
X96689333Y-117167780D01*
X96640952Y-117119400D01*
X96689333Y-117071019D01*
X96689333Y-117167780D01*
X96205523Y-117409685D02*
X96205523Y-118087019D01*
X96205523Y-117506447D02*
X96157142Y-117458066D01*
X96060380Y-117409685D01*
X95915238Y-117409685D01*
X95818476Y-117458066D01*
X95770095Y-117554828D01*
X95770095Y-118087019D01*
X95431428Y-117409685D02*
X95044380Y-117409685D01*
X95286285Y-117071019D02*
X95286285Y-117941876D01*
X95237904Y-118038638D01*
X95141142Y-118087019D01*
X95044380Y-118087019D01*
X94560571Y-118087019D02*
X94657333Y-118038638D01*
X94705714Y-117990257D01*
X94754095Y-117893495D01*
X94754095Y-117603209D01*
X94705714Y-117506447D01*
X94657333Y-117458066D01*
X94560571Y-117409685D01*
X94415428Y-117409685D01*
X94318666Y-117458066D01*
X94270285Y-117506447D01*
X94221904Y-117603209D01*
X94221904Y-117893495D01*
X94270285Y-117990257D01*
X94318666Y-118038638D01*
X94415428Y-118087019D01*
X94560571Y-118087019D01*
X93834857Y-118038638D02*
X93738095Y-118087019D01*
X93544571Y-118087019D01*
X93447809Y-118038638D01*
X93399428Y-117941876D01*
X93399428Y-117893495D01*
X93447809Y-117796733D01*
X93544571Y-117748352D01*
X93689714Y-117748352D01*
X93786476Y-117699971D01*
X93834857Y-117603209D01*
X93834857Y-117554828D01*
X93786476Y-117458066D01*
X93689714Y-117409685D01*
X93544571Y-117409685D01*
X93447809Y-117458066D01*
X92964000Y-118087019D02*
X92964000Y-117071019D01*
X92528571Y-118087019D02*
X92528571Y-117554828D01*
X92576952Y-117458066D01*
X92673714Y-117409685D01*
X92818857Y-117409685D01*
X92915619Y-117458066D01*
X92964000Y-117506447D01*
D11*
X150072642Y-116852000D02*
X150215499Y-116780571D01*
X150429785Y-116780571D01*
X150644071Y-116852000D01*
X150786928Y-116994857D01*
X150858356Y-117137714D01*
X150929785Y-117423428D01*
X150929785Y-117637714D01*
X150858356Y-117923428D01*
X150786928Y-118066285D01*
X150644071Y-118209142D01*
X150429785Y-118280571D01*
X150286928Y-118280571D01*
X150072642Y-118209142D01*
X150001214Y-118137714D01*
X150001214Y-117637714D01*
X150286928Y-117637714D01*
X149501214Y-116780571D02*
X149144071Y-118280571D01*
X148858356Y-117209142D01*
X148572642Y-118280571D01*
X148215499Y-116780571D01*
D12*
X155638500Y-114173000D02*
X155783642Y-114100428D01*
X156001357Y-114100428D01*
X156219071Y-114173000D01*
X156364214Y-114318142D01*
X156436785Y-114463285D01*
X156509357Y-114753571D01*
X156509357Y-114971285D01*
X156436785Y-115261571D01*
X156364214Y-115406714D01*
X156219071Y-115551857D01*
X156001357Y-115624428D01*
X155856214Y-115624428D01*
X155638500Y-115551857D01*
X155565928Y-115479285D01*
X155565928Y-114971285D01*
X155856214Y-114971285D01*
X154259642Y-115624428D02*
X154259642Y-114826142D01*
X154332214Y-114681000D01*
X154477357Y-114608428D01*
X154767642Y-114608428D01*
X154912785Y-114681000D01*
X154259642Y-115551857D02*
X154404785Y-115624428D01*
X154767642Y-115624428D01*
X154912785Y-115551857D01*
X154985357Y-115406714D01*
X154985357Y-115261571D01*
X154912785Y-115116428D01*
X154767642Y-115043857D01*
X154404785Y-115043857D01*
X154259642Y-114971285D01*
X153533928Y-115624428D02*
X153533928Y-114608428D01*
X153533928Y-114898714D02*
X153461357Y-114753571D01*
X153388785Y-114681000D01*
X153243642Y-114608428D01*
X153098500Y-114608428D01*
X152590500Y-115624428D02*
X152590500Y-114608428D01*
X152590500Y-114898714D02*
X152517928Y-114753571D01*
X152445357Y-114681000D01*
X152300214Y-114608428D01*
X152155071Y-114608428D01*
X151066500Y-115551857D02*
X151211642Y-115624428D01*
X151501928Y-115624428D01*
X151647071Y-115551857D01*
X151719642Y-115406714D01*
X151719642Y-114826142D01*
X151647071Y-114681000D01*
X151501928Y-114608428D01*
X151211642Y-114608428D01*
X151066500Y-114681000D01*
X150993928Y-114826142D01*
X150993928Y-114971285D01*
X151719642Y-115116428D01*
X150558500Y-114608428D02*
X149977928Y-114608428D01*
X150340785Y-114100428D02*
X150340785Y-115406714D01*
X150268214Y-115551857D01*
X150123071Y-115624428D01*
X149977928Y-115624428D01*
X149687642Y-114608428D02*
X149107071Y-114608428D01*
X149469928Y-114100428D02*
X149469928Y-115406714D01*
X149397357Y-115551857D01*
X149252214Y-115624428D01*
X149107071Y-115624428D01*
X148526500Y-114100428D02*
X148526500Y-114173000D01*
X148599071Y-114318142D01*
X148671642Y-114390714D01*
X147945928Y-115551857D02*
X147800785Y-115624428D01*
X147510500Y-115624428D01*
X147365357Y-115551857D01*
X147292785Y-115406714D01*
X147292785Y-115334142D01*
X147365357Y-115189000D01*
X147510500Y-115116428D01*
X147728214Y-115116428D01*
X147873357Y-115043857D01*
X147945928Y-114898714D01*
X147945928Y-114826142D01*
X147873357Y-114681000D01*
X147728214Y-114608428D01*
X147510500Y-114608428D01*
X147365357Y-114681000D01*
X145623642Y-114100428D02*
X145260785Y-115624428D01*
X144970500Y-114535857D01*
X144680214Y-115624428D01*
X144317357Y-114100428D01*
X143519071Y-115624428D02*
X143664214Y-115551857D01*
X143736785Y-115479285D01*
X143809357Y-115334142D01*
X143809357Y-114898714D01*
X143736785Y-114753571D01*
X143664214Y-114681000D01*
X143519071Y-114608428D01*
X143301357Y-114608428D01*
X143156214Y-114681000D01*
X143083642Y-114753571D01*
X143011071Y-114898714D01*
X143011071Y-115334142D01*
X143083642Y-115479285D01*
X143156214Y-115551857D01*
X143301357Y-115624428D01*
X143519071Y-115624428D01*
X142357928Y-115624428D02*
X142357928Y-114608428D01*
X142357928Y-114898714D02*
X142285357Y-114753571D01*
X142212785Y-114681000D01*
X142067642Y-114608428D01*
X141922500Y-114608428D01*
X141414500Y-115624428D02*
X141414500Y-114100428D01*
X141269357Y-115043857D02*
X140833928Y-115624428D01*
X140833928Y-114608428D02*
X141414500Y-115189000D01*
X140253357Y-115551857D02*
X140108214Y-115624428D01*
X139817928Y-115624428D01*
X139672785Y-115551857D01*
X139600214Y-115406714D01*
X139600214Y-115334142D01*
X139672785Y-115189000D01*
X139817928Y-115116428D01*
X140035642Y-115116428D01*
X140180785Y-115043857D01*
X140253357Y-114898714D01*
X140253357Y-114826142D01*
X140180785Y-114681000D01*
X140035642Y-114608428D01*
X139817928Y-114608428D01*
X139672785Y-114681000D01*
X138947071Y-115624428D02*
X138947071Y-114100428D01*
X138293928Y-115624428D02*
X138293928Y-114826142D01*
X138366500Y-114681000D01*
X138511642Y-114608428D01*
X138729357Y-114608428D01*
X138874500Y-114681000D01*
X138947071Y-114753571D01*
X137350500Y-115624428D02*
X137495642Y-115551857D01*
X137568214Y-115479285D01*
X137640785Y-115334142D01*
X137640785Y-114898714D01*
X137568214Y-114753571D01*
X137495642Y-114681000D01*
X137350500Y-114608428D01*
X137132785Y-114608428D01*
X136987642Y-114681000D01*
X136915071Y-114753571D01*
X136842500Y-114898714D01*
X136842500Y-115334142D01*
X136915071Y-115479285D01*
X136987642Y-115551857D01*
X137132785Y-115624428D01*
X137350500Y-115624428D01*
X136189357Y-114608428D02*
X136189357Y-116132428D01*
X136189357Y-114681000D02*
X136044214Y-114608428D01*
X135753928Y-114608428D01*
X135608785Y-114681000D01*
X135536214Y-114753571D01*
X135463642Y-114898714D01*
X135463642Y-115334142D01*
X135536214Y-115479285D01*
X135608785Y-115551857D01*
X135753928Y-115624428D01*
X136044214Y-115624428D01*
X136189357Y-115551857D01*
%LPC*%
D13*
G36*
X165735000Y-127635000D02*
G01*
X123825000Y-127635000D01*
X123317000Y-125031500D01*
X166243000Y-125031500D01*
X165735000Y-127635000D01*
G37*
X165735000Y-127635000D02*
X123825000Y-127635000D01*
X123317000Y-125031500D01*
X166243000Y-125031500D01*
X165735000Y-127635000D01*
G36*
X117475000Y-127635000D02*
G01*
X75565000Y-127635000D01*
X75057000Y-125031500D01*
X117983000Y-125031500D01*
X117475000Y-127635000D01*
G37*
X117475000Y-127635000D02*
X75565000Y-127635000D01*
X75057000Y-125031500D01*
X117983000Y-125031500D01*
X117475000Y-127635000D01*
G36*
G01*
X165139300Y-127233440D02*
X165139300Y-124988560D01*
G75*
G02*
X165615860Y-124512000I476560J0D01*
G01*
X165854140Y-124512000D01*
G75*
G02*
X166330700Y-124988560I0J-476560D01*
G01*
X166330700Y-127233440D01*
G75*
G02*
X165854140Y-127710000I-476560J0D01*
G01*
X165615860Y-127710000D01*
G75*
G02*
X165139300Y-127233440I0J476560D01*
G01*
G37*
G36*
G01*
X163869300Y-127233440D02*
X163869300Y-124988560D01*
G75*
G02*
X164345860Y-124512000I476560J0D01*
G01*
X164584140Y-124512000D01*
G75*
G02*
X165060700Y-124988560I0J-476560D01*
G01*
X165060700Y-127233440D01*
G75*
G02*
X164584140Y-127710000I-476560J0D01*
G01*
X164345860Y-127710000D01*
G75*
G02*
X163869300Y-127233440I0J476560D01*
G01*
G37*
G36*
G01*
X162599300Y-127233440D02*
X162599300Y-124988560D01*
G75*
G02*
X163075860Y-124512000I476560J0D01*
G01*
X163314140Y-124512000D01*
G75*
G02*
X163790700Y-124988560I0J-476560D01*
G01*
X163790700Y-127233440D01*
G75*
G02*
X163314140Y-127710000I-476560J0D01*
G01*
X163075860Y-127710000D01*
G75*
G02*
X162599300Y-127233440I0J476560D01*
G01*
G37*
G36*
G01*
X161329300Y-127233440D02*
X161329300Y-124988560D01*
G75*
G02*
X161805860Y-124512000I476560J0D01*
G01*
X162044140Y-124512000D01*
G75*
G02*
X162520700Y-124988560I0J-476560D01*
G01*
X162520700Y-127233440D01*
G75*
G02*
X162044140Y-127710000I-476560J0D01*
G01*
X161805860Y-127710000D01*
G75*
G02*
X161329300Y-127233440I0J476560D01*
G01*
G37*
G36*
G01*
X160059300Y-127233440D02*
X160059300Y-124988560D01*
G75*
G02*
X160535860Y-124512000I476560J0D01*
G01*
X160774140Y-124512000D01*
G75*
G02*
X161250700Y-124988560I0J-476560D01*
G01*
X161250700Y-127233440D01*
G75*
G02*
X160774140Y-127710000I-476560J0D01*
G01*
X160535860Y-127710000D01*
G75*
G02*
X160059300Y-127233440I0J476560D01*
G01*
G37*
G36*
G01*
X158789300Y-127233440D02*
X158789300Y-124988560D01*
G75*
G02*
X159265860Y-124512000I476560J0D01*
G01*
X159504140Y-124512000D01*
G75*
G02*
X159980700Y-124988560I0J-476560D01*
G01*
X159980700Y-127233440D01*
G75*
G02*
X159504140Y-127710000I-476560J0D01*
G01*
X159265860Y-127710000D01*
G75*
G02*
X158789300Y-127233440I0J476560D01*
G01*
G37*
G36*
G01*
X157519300Y-127233440D02*
X157519300Y-124988560D01*
G75*
G02*
X157995860Y-124512000I476560J0D01*
G01*
X158234140Y-124512000D01*
G75*
G02*
X158710700Y-124988560I0J-476560D01*
G01*
X158710700Y-127233440D01*
G75*
G02*
X158234140Y-127710000I-476560J0D01*
G01*
X157995860Y-127710000D01*
G75*
G02*
X157519300Y-127233440I0J476560D01*
G01*
G37*
G36*
G01*
X156249300Y-127233440D02*
X156249300Y-124988560D01*
G75*
G02*
X156725860Y-124512000I476560J0D01*
G01*
X156964140Y-124512000D01*
G75*
G02*
X157440700Y-124988560I0J-476560D01*
G01*
X157440700Y-127233440D01*
G75*
G02*
X156964140Y-127710000I-476560J0D01*
G01*
X156725860Y-127710000D01*
G75*
G02*
X156249300Y-127233440I0J476560D01*
G01*
G37*
G36*
G01*
X154979300Y-127233440D02*
X154979300Y-124988560D01*
G75*
G02*
X155455860Y-124512000I476560J0D01*
G01*
X155694140Y-124512000D01*
G75*
G02*
X156170700Y-124988560I0J-476560D01*
G01*
X156170700Y-127233440D01*
G75*
G02*
X155694140Y-127710000I-476560J0D01*
G01*
X155455860Y-127710000D01*
G75*
G02*
X154979300Y-127233440I0J476560D01*
G01*
G37*
G36*
G01*
X153709300Y-127233440D02*
X153709300Y-124988560D01*
G75*
G02*
X154185860Y-124512000I476560J0D01*
G01*
X154424140Y-124512000D01*
G75*
G02*
X154900700Y-124988560I0J-476560D01*
G01*
X154900700Y-127233440D01*
G75*
G02*
X154424140Y-127710000I-476560J0D01*
G01*
X154185860Y-127710000D01*
G75*
G02*
X153709300Y-127233440I0J476560D01*
G01*
G37*
G36*
G01*
X152439300Y-127233440D02*
X152439300Y-124988560D01*
G75*
G02*
X152915860Y-124512000I476560J0D01*
G01*
X153154140Y-124512000D01*
G75*
G02*
X153630700Y-124988560I0J-476560D01*
G01*
X153630700Y-127233440D01*
G75*
G02*
X153154140Y-127710000I-476560J0D01*
G01*
X152915860Y-127710000D01*
G75*
G02*
X152439300Y-127233440I0J476560D01*
G01*
G37*
G36*
G01*
X151169300Y-127233440D02*
X151169300Y-124988560D01*
G75*
G02*
X151645860Y-124512000I476560J0D01*
G01*
X151884140Y-124512000D01*
G75*
G02*
X152360700Y-124988560I0J-476560D01*
G01*
X152360700Y-127233440D01*
G75*
G02*
X151884140Y-127710000I-476560J0D01*
G01*
X151645860Y-127710000D01*
G75*
G02*
X151169300Y-127233440I0J476560D01*
G01*
G37*
G36*
G01*
X149899300Y-127233440D02*
X149899300Y-124988560D01*
G75*
G02*
X150375860Y-124512000I476560J0D01*
G01*
X150614140Y-124512000D01*
G75*
G02*
X151090700Y-124988560I0J-476560D01*
G01*
X151090700Y-127233440D01*
G75*
G02*
X150614140Y-127710000I-476560J0D01*
G01*
X150375860Y-127710000D01*
G75*
G02*
X149899300Y-127233440I0J476560D01*
G01*
G37*
G36*
G01*
X148629300Y-127233440D02*
X148629300Y-124988560D01*
G75*
G02*
X149105860Y-124512000I476560J0D01*
G01*
X149344140Y-124512000D01*
G75*
G02*
X149820700Y-124988560I0J-476560D01*
G01*
X149820700Y-127233440D01*
G75*
G02*
X149344140Y-127710000I-476560J0D01*
G01*
X149105860Y-127710000D01*
G75*
G02*
X148629300Y-127233440I0J476560D01*
G01*
G37*
G36*
G01*
X147359300Y-127233440D02*
X147359300Y-124988560D01*
G75*
G02*
X147835860Y-124512000I476560J0D01*
G01*
X148074140Y-124512000D01*
G75*
G02*
X148550700Y-124988560I0J-476560D01*
G01*
X148550700Y-127233440D01*
G75*
G02*
X148074140Y-127710000I-476560J0D01*
G01*
X147835860Y-127710000D01*
G75*
G02*
X147359300Y-127233440I0J476560D01*
G01*
G37*
G36*
G01*
X146089300Y-127233440D02*
X146089300Y-124988560D01*
G75*
G02*
X146565860Y-124512000I476560J0D01*
G01*
X146804140Y-124512000D01*
G75*
G02*
X147280700Y-124988560I0J-476560D01*
G01*
X147280700Y-127233440D01*
G75*
G02*
X146804140Y-127710000I-476560J0D01*
G01*
X146565860Y-127710000D01*
G75*
G02*
X146089300Y-127233440I0J476560D01*
G01*
G37*
G36*
G01*
X144819300Y-127233440D02*
X144819300Y-124988560D01*
G75*
G02*
X145295860Y-124512000I476560J0D01*
G01*
X145534140Y-124512000D01*
G75*
G02*
X146010700Y-124988560I0J-476560D01*
G01*
X146010700Y-127233440D01*
G75*
G02*
X145534140Y-127710000I-476560J0D01*
G01*
X145295860Y-127710000D01*
G75*
G02*
X144819300Y-127233440I0J476560D01*
G01*
G37*
G36*
G01*
X143549300Y-127233440D02*
X143549300Y-124988560D01*
G75*
G02*
X144025860Y-124512000I476560J0D01*
G01*
X144264140Y-124512000D01*
G75*
G02*
X144740700Y-124988560I0J-476560D01*
G01*
X144740700Y-127233440D01*
G75*
G02*
X144264140Y-127710000I-476560J0D01*
G01*
X144025860Y-127710000D01*
G75*
G02*
X143549300Y-127233440I0J476560D01*
G01*
G37*
G36*
G01*
X142279300Y-127233440D02*
X142279300Y-124988560D01*
G75*
G02*
X142755860Y-124512000I476560J0D01*
G01*
X142994140Y-124512000D01*
G75*
G02*
X143470700Y-124988560I0J-476560D01*
G01*
X143470700Y-127233440D01*
G75*
G02*
X142994140Y-127710000I-476560J0D01*
G01*
X142755860Y-127710000D01*
G75*
G02*
X142279300Y-127233440I0J476560D01*
G01*
G37*
G36*
G01*
X141009300Y-127233440D02*
X141009300Y-124988560D01*
G75*
G02*
X141485860Y-124512000I476560J0D01*
G01*
X141724140Y-124512000D01*
G75*
G02*
X142200700Y-124988560I0J-476560D01*
G01*
X142200700Y-127233440D01*
G75*
G02*
X141724140Y-127710000I-476560J0D01*
G01*
X141485860Y-127710000D01*
G75*
G02*
X141009300Y-127233440I0J476560D01*
G01*
G37*
G36*
G01*
X139739300Y-127233440D02*
X139739300Y-124988560D01*
G75*
G02*
X140215860Y-124512000I476560J0D01*
G01*
X140454140Y-124512000D01*
G75*
G02*
X140930700Y-124988560I0J-476560D01*
G01*
X140930700Y-127233440D01*
G75*
G02*
X140454140Y-127710000I-476560J0D01*
G01*
X140215860Y-127710000D01*
G75*
G02*
X139739300Y-127233440I0J476560D01*
G01*
G37*
G36*
G01*
X138469300Y-127233440D02*
X138469300Y-124988560D01*
G75*
G02*
X138945860Y-124512000I476560J0D01*
G01*
X139184140Y-124512000D01*
G75*
G02*
X139660700Y-124988560I0J-476560D01*
G01*
X139660700Y-127233440D01*
G75*
G02*
X139184140Y-127710000I-476560J0D01*
G01*
X138945860Y-127710000D01*
G75*
G02*
X138469300Y-127233440I0J476560D01*
G01*
G37*
G36*
G01*
X137199300Y-127233440D02*
X137199300Y-124988560D01*
G75*
G02*
X137675860Y-124512000I476560J0D01*
G01*
X137914140Y-124512000D01*
G75*
G02*
X138390700Y-124988560I0J-476560D01*
G01*
X138390700Y-127233440D01*
G75*
G02*
X137914140Y-127710000I-476560J0D01*
G01*
X137675860Y-127710000D01*
G75*
G02*
X137199300Y-127233440I0J476560D01*
G01*
G37*
G36*
G01*
X135929300Y-127233440D02*
X135929300Y-124988560D01*
G75*
G02*
X136405860Y-124512000I476560J0D01*
G01*
X136644140Y-124512000D01*
G75*
G02*
X137120700Y-124988560I0J-476560D01*
G01*
X137120700Y-127233440D01*
G75*
G02*
X136644140Y-127710000I-476560J0D01*
G01*
X136405860Y-127710000D01*
G75*
G02*
X135929300Y-127233440I0J476560D01*
G01*
G37*
G36*
G01*
X134659300Y-127233440D02*
X134659300Y-124988560D01*
G75*
G02*
X135135860Y-124512000I476560J0D01*
G01*
X135374140Y-124512000D01*
G75*
G02*
X135850700Y-124988560I0J-476560D01*
G01*
X135850700Y-127233440D01*
G75*
G02*
X135374140Y-127710000I-476560J0D01*
G01*
X135135860Y-127710000D01*
G75*
G02*
X134659300Y-127233440I0J476560D01*
G01*
G37*
G36*
G01*
X133389300Y-127233440D02*
X133389300Y-124988560D01*
G75*
G02*
X133865860Y-124512000I476560J0D01*
G01*
X134104140Y-124512000D01*
G75*
G02*
X134580700Y-124988560I0J-476560D01*
G01*
X134580700Y-127233440D01*
G75*
G02*
X134104140Y-127710000I-476560J0D01*
G01*
X133865860Y-127710000D01*
G75*
G02*
X133389300Y-127233440I0J476560D01*
G01*
G37*
G36*
G01*
X132119300Y-127233440D02*
X132119300Y-124988560D01*
G75*
G02*
X132595860Y-124512000I476560J0D01*
G01*
X132834140Y-124512000D01*
G75*
G02*
X133310700Y-124988560I0J-476560D01*
G01*
X133310700Y-127233440D01*
G75*
G02*
X132834140Y-127710000I-476560J0D01*
G01*
X132595860Y-127710000D01*
G75*
G02*
X132119300Y-127233440I0J476560D01*
G01*
G37*
G36*
G01*
X130849300Y-127233440D02*
X130849300Y-124988560D01*
G75*
G02*
X131325860Y-124512000I476560J0D01*
G01*
X131564140Y-124512000D01*
G75*
G02*
X132040700Y-124988560I0J-476560D01*
G01*
X132040700Y-127233440D01*
G75*
G02*
X131564140Y-127710000I-476560J0D01*
G01*
X131325860Y-127710000D01*
G75*
G02*
X130849300Y-127233440I0J476560D01*
G01*
G37*
G36*
G01*
X129579300Y-127233440D02*
X129579300Y-124988560D01*
G75*
G02*
X130055860Y-124512000I476560J0D01*
G01*
X130294140Y-124512000D01*
G75*
G02*
X130770700Y-124988560I0J-476560D01*
G01*
X130770700Y-127233440D01*
G75*
G02*
X130294140Y-127710000I-476560J0D01*
G01*
X130055860Y-127710000D01*
G75*
G02*
X129579300Y-127233440I0J476560D01*
G01*
G37*
G36*
G01*
X128309300Y-127233440D02*
X128309300Y-124988560D01*
G75*
G02*
X128785860Y-124512000I476560J0D01*
G01*
X129024140Y-124512000D01*
G75*
G02*
X129500700Y-124988560I0J-476560D01*
G01*
X129500700Y-127233440D01*
G75*
G02*
X129024140Y-127710000I-476560J0D01*
G01*
X128785860Y-127710000D01*
G75*
G02*
X128309300Y-127233440I0J476560D01*
G01*
G37*
G36*
G01*
X127039300Y-127233440D02*
X127039300Y-124988560D01*
G75*
G02*
X127515860Y-124512000I476560J0D01*
G01*
X127754140Y-124512000D01*
G75*
G02*
X128230700Y-124988560I0J-476560D01*
G01*
X128230700Y-127233440D01*
G75*
G02*
X127754140Y-127710000I-476560J0D01*
G01*
X127515860Y-127710000D01*
G75*
G02*
X127039300Y-127233440I0J476560D01*
G01*
G37*
G36*
G01*
X125769300Y-127233440D02*
X125769300Y-124988560D01*
G75*
G02*
X126245860Y-124512000I476560J0D01*
G01*
X126484140Y-124512000D01*
G75*
G02*
X126960700Y-124988560I0J-476560D01*
G01*
X126960700Y-127233440D01*
G75*
G02*
X126484140Y-127710000I-476560J0D01*
G01*
X126245860Y-127710000D01*
G75*
G02*
X125769300Y-127233440I0J476560D01*
G01*
G37*
G36*
G01*
X124499300Y-127233440D02*
X124499300Y-124988560D01*
G75*
G02*
X124975860Y-124512000I476560J0D01*
G01*
X125214140Y-124512000D01*
G75*
G02*
X125690700Y-124988560I0J-476560D01*
G01*
X125690700Y-127233440D01*
G75*
G02*
X125214140Y-127710000I-476560J0D01*
G01*
X124975860Y-127710000D01*
G75*
G02*
X124499300Y-127233440I0J476560D01*
G01*
G37*
G36*
G01*
X123229300Y-127233440D02*
X123229300Y-124988560D01*
G75*
G02*
X123705860Y-124512000I476560J0D01*
G01*
X123944140Y-124512000D01*
G75*
G02*
X124420700Y-124988560I0J-476560D01*
G01*
X124420700Y-127233440D01*
G75*
G02*
X123944140Y-127710000I-476560J0D01*
G01*
X123705860Y-127710000D01*
G75*
G02*
X123229300Y-127233440I0J476560D01*
G01*
G37*
G36*
G01*
X116879300Y-127233440D02*
X116879300Y-124988560D01*
G75*
G02*
X117355860Y-124512000I476560J0D01*
G01*
X117594140Y-124512000D01*
G75*
G02*
X118070700Y-124988560I0J-476560D01*
G01*
X118070700Y-127233440D01*
G75*
G02*
X117594140Y-127710000I-476560J0D01*
G01*
X117355860Y-127710000D01*
G75*
G02*
X116879300Y-127233440I0J476560D01*
G01*
G37*
G36*
G01*
X115609300Y-127233440D02*
X115609300Y-124988560D01*
G75*
G02*
X116085860Y-124512000I476560J0D01*
G01*
X116324140Y-124512000D01*
G75*
G02*
X116800700Y-124988560I0J-476560D01*
G01*
X116800700Y-127233440D01*
G75*
G02*
X116324140Y-127710000I-476560J0D01*
G01*
X116085860Y-127710000D01*
G75*
G02*
X115609300Y-127233440I0J476560D01*
G01*
G37*
G36*
G01*
X114339300Y-127233440D02*
X114339300Y-124988560D01*
G75*
G02*
X114815860Y-124512000I476560J0D01*
G01*
X115054140Y-124512000D01*
G75*
G02*
X115530700Y-124988560I0J-476560D01*
G01*
X115530700Y-127233440D01*
G75*
G02*
X115054140Y-127710000I-476560J0D01*
G01*
X114815860Y-127710000D01*
G75*
G02*
X114339300Y-127233440I0J476560D01*
G01*
G37*
G36*
G01*
X113069300Y-127233440D02*
X113069300Y-124988560D01*
G75*
G02*
X113545860Y-124512000I476560J0D01*
G01*
X113784140Y-124512000D01*
G75*
G02*
X114260700Y-124988560I0J-476560D01*
G01*
X114260700Y-127233440D01*
G75*
G02*
X113784140Y-127710000I-476560J0D01*
G01*
X113545860Y-127710000D01*
G75*
G02*
X113069300Y-127233440I0J476560D01*
G01*
G37*
G36*
G01*
X111799300Y-127233440D02*
X111799300Y-124988560D01*
G75*
G02*
X112275860Y-124512000I476560J0D01*
G01*
X112514140Y-124512000D01*
G75*
G02*
X112990700Y-124988560I0J-476560D01*
G01*
X112990700Y-127233440D01*
G75*
G02*
X112514140Y-127710000I-476560J0D01*
G01*
X112275860Y-127710000D01*
G75*
G02*
X111799300Y-127233440I0J476560D01*
G01*
G37*
G36*
G01*
X110529300Y-127233440D02*
X110529300Y-124988560D01*
G75*
G02*
X111005860Y-124512000I476560J0D01*
G01*
X111244140Y-124512000D01*
G75*
G02*
X111720700Y-124988560I0J-476560D01*
G01*
X111720700Y-127233440D01*
G75*
G02*
X111244140Y-127710000I-476560J0D01*
G01*
X111005860Y-127710000D01*
G75*
G02*
X110529300Y-127233440I0J476560D01*
G01*
G37*
G36*
G01*
X109259300Y-127233440D02*
X109259300Y-124988560D01*
G75*
G02*
X109735860Y-124512000I476560J0D01*
G01*
X109974140Y-124512000D01*
G75*
G02*
X110450700Y-124988560I0J-476560D01*
G01*
X110450700Y-127233440D01*
G75*
G02*
X109974140Y-127710000I-476560J0D01*
G01*
X109735860Y-127710000D01*
G75*
G02*
X109259300Y-127233440I0J476560D01*
G01*
G37*
G36*
G01*
X107989300Y-127233440D02*
X107989300Y-124988560D01*
G75*
G02*
X108465860Y-124512000I476560J0D01*
G01*
X108704140Y-124512000D01*
G75*
G02*
X109180700Y-124988560I0J-476560D01*
G01*
X109180700Y-127233440D01*
G75*
G02*
X108704140Y-127710000I-476560J0D01*
G01*
X108465860Y-127710000D01*
G75*
G02*
X107989300Y-127233440I0J476560D01*
G01*
G37*
G36*
G01*
X106719300Y-127233440D02*
X106719300Y-124988560D01*
G75*
G02*
X107195860Y-124512000I476560J0D01*
G01*
X107434140Y-124512000D01*
G75*
G02*
X107910700Y-124988560I0J-476560D01*
G01*
X107910700Y-127233440D01*
G75*
G02*
X107434140Y-127710000I-476560J0D01*
G01*
X107195860Y-127710000D01*
G75*
G02*
X106719300Y-127233440I0J476560D01*
G01*
G37*
G36*
G01*
X105449300Y-127233440D02*
X105449300Y-124988560D01*
G75*
G02*
X105925860Y-124512000I476560J0D01*
G01*
X106164140Y-124512000D01*
G75*
G02*
X106640700Y-124988560I0J-476560D01*
G01*
X106640700Y-127233440D01*
G75*
G02*
X106164140Y-127710000I-476560J0D01*
G01*
X105925860Y-127710000D01*
G75*
G02*
X105449300Y-127233440I0J476560D01*
G01*
G37*
G36*
G01*
X104179300Y-127233440D02*
X104179300Y-124988560D01*
G75*
G02*
X104655860Y-124512000I476560J0D01*
G01*
X104894140Y-124512000D01*
G75*
G02*
X105370700Y-124988560I0J-476560D01*
G01*
X105370700Y-127233440D01*
G75*
G02*
X104894140Y-127710000I-476560J0D01*
G01*
X104655860Y-127710000D01*
G75*
G02*
X104179300Y-127233440I0J476560D01*
G01*
G37*
G36*
G01*
X102909300Y-127233440D02*
X102909300Y-124988560D01*
G75*
G02*
X103385860Y-124512000I476560J0D01*
G01*
X103624140Y-124512000D01*
G75*
G02*
X104100700Y-124988560I0J-476560D01*
G01*
X104100700Y-127233440D01*
G75*
G02*
X103624140Y-127710000I-476560J0D01*
G01*
X103385860Y-127710000D01*
G75*
G02*
X102909300Y-127233440I0J476560D01*
G01*
G37*
G36*
G01*
X101639300Y-127233440D02*
X101639300Y-124988560D01*
G75*
G02*
X102115860Y-124512000I476560J0D01*
G01*
X102354140Y-124512000D01*
G75*
G02*
X102830700Y-124988560I0J-476560D01*
G01*
X102830700Y-127233440D01*
G75*
G02*
X102354140Y-127710000I-476560J0D01*
G01*
X102115860Y-127710000D01*
G75*
G02*
X101639300Y-127233440I0J476560D01*
G01*
G37*
G36*
G01*
X100369300Y-127233440D02*
X100369300Y-124988560D01*
G75*
G02*
X100845860Y-124512000I476560J0D01*
G01*
X101084140Y-124512000D01*
G75*
G02*
X101560700Y-124988560I0J-476560D01*
G01*
X101560700Y-127233440D01*
G75*
G02*
X101084140Y-127710000I-476560J0D01*
G01*
X100845860Y-127710000D01*
G75*
G02*
X100369300Y-127233440I0J476560D01*
G01*
G37*
G36*
G01*
X99099300Y-127233440D02*
X99099300Y-124988560D01*
G75*
G02*
X99575860Y-124512000I476560J0D01*
G01*
X99814140Y-124512000D01*
G75*
G02*
X100290700Y-124988560I0J-476560D01*
G01*
X100290700Y-127233440D01*
G75*
G02*
X99814140Y-127710000I-476560J0D01*
G01*
X99575860Y-127710000D01*
G75*
G02*
X99099300Y-127233440I0J476560D01*
G01*
G37*
G36*
G01*
X97829300Y-127233440D02*
X97829300Y-124988560D01*
G75*
G02*
X98305860Y-124512000I476560J0D01*
G01*
X98544140Y-124512000D01*
G75*
G02*
X99020700Y-124988560I0J-476560D01*
G01*
X99020700Y-127233440D01*
G75*
G02*
X98544140Y-127710000I-476560J0D01*
G01*
X98305860Y-127710000D01*
G75*
G02*
X97829300Y-127233440I0J476560D01*
G01*
G37*
G36*
G01*
X96559300Y-127233440D02*
X96559300Y-124988560D01*
G75*
G02*
X97035860Y-124512000I476560J0D01*
G01*
X97274140Y-124512000D01*
G75*
G02*
X97750700Y-124988560I0J-476560D01*
G01*
X97750700Y-127233440D01*
G75*
G02*
X97274140Y-127710000I-476560J0D01*
G01*
X97035860Y-127710000D01*
G75*
G02*
X96559300Y-127233440I0J476560D01*
G01*
G37*
G36*
G01*
X95289300Y-127233440D02*
X95289300Y-124988560D01*
G75*
G02*
X95765860Y-124512000I476560J0D01*
G01*
X96004140Y-124512000D01*
G75*
G02*
X96480700Y-124988560I0J-476560D01*
G01*
X96480700Y-127233440D01*
G75*
G02*
X96004140Y-127710000I-476560J0D01*
G01*
X95765860Y-127710000D01*
G75*
G02*
X95289300Y-127233440I0J476560D01*
G01*
G37*
G36*
G01*
X94019300Y-127233440D02*
X94019300Y-124988560D01*
G75*
G02*
X94495860Y-124512000I476560J0D01*
G01*
X94734140Y-124512000D01*
G75*
G02*
X95210700Y-124988560I0J-476560D01*
G01*
X95210700Y-127233440D01*
G75*
G02*
X94734140Y-127710000I-476560J0D01*
G01*
X94495860Y-127710000D01*
G75*
G02*
X94019300Y-127233440I0J476560D01*
G01*
G37*
G36*
G01*
X92749300Y-127233440D02*
X92749300Y-124988560D01*
G75*
G02*
X93225860Y-124512000I476560J0D01*
G01*
X93464140Y-124512000D01*
G75*
G02*
X93940700Y-124988560I0J-476560D01*
G01*
X93940700Y-127233440D01*
G75*
G02*
X93464140Y-127710000I-476560J0D01*
G01*
X93225860Y-127710000D01*
G75*
G02*
X92749300Y-127233440I0J476560D01*
G01*
G37*
G36*
G01*
X91479300Y-127233440D02*
X91479300Y-124988560D01*
G75*
G02*
X91955860Y-124512000I476560J0D01*
G01*
X92194140Y-124512000D01*
G75*
G02*
X92670700Y-124988560I0J-476560D01*
G01*
X92670700Y-127233440D01*
G75*
G02*
X92194140Y-127710000I-476560J0D01*
G01*
X91955860Y-127710000D01*
G75*
G02*
X91479300Y-127233440I0J476560D01*
G01*
G37*
G36*
G01*
X90209300Y-127233440D02*
X90209300Y-124988560D01*
G75*
G02*
X90685860Y-124512000I476560J0D01*
G01*
X90924140Y-124512000D01*
G75*
G02*
X91400700Y-124988560I0J-476560D01*
G01*
X91400700Y-127233440D01*
G75*
G02*
X90924140Y-127710000I-476560J0D01*
G01*
X90685860Y-127710000D01*
G75*
G02*
X90209300Y-127233440I0J476560D01*
G01*
G37*
G36*
G01*
X88939300Y-127233440D02*
X88939300Y-124988560D01*
G75*
G02*
X89415860Y-124512000I476560J0D01*
G01*
X89654140Y-124512000D01*
G75*
G02*
X90130700Y-124988560I0J-476560D01*
G01*
X90130700Y-127233440D01*
G75*
G02*
X89654140Y-127710000I-476560J0D01*
G01*
X89415860Y-127710000D01*
G75*
G02*
X88939300Y-127233440I0J476560D01*
G01*
G37*
G36*
G01*
X87669300Y-127233440D02*
X87669300Y-124988560D01*
G75*
G02*
X88145860Y-124512000I476560J0D01*
G01*
X88384140Y-124512000D01*
G75*
G02*
X88860700Y-124988560I0J-476560D01*
G01*
X88860700Y-127233440D01*
G75*
G02*
X88384140Y-127710000I-476560J0D01*
G01*
X88145860Y-127710000D01*
G75*
G02*
X87669300Y-127233440I0J476560D01*
G01*
G37*
G36*
G01*
X86399300Y-127233440D02*
X86399300Y-124988560D01*
G75*
G02*
X86875860Y-124512000I476560J0D01*
G01*
X87114140Y-124512000D01*
G75*
G02*
X87590700Y-124988560I0J-476560D01*
G01*
X87590700Y-127233440D01*
G75*
G02*
X87114140Y-127710000I-476560J0D01*
G01*
X86875860Y-127710000D01*
G75*
G02*
X86399300Y-127233440I0J476560D01*
G01*
G37*
G36*
G01*
X85129300Y-127233440D02*
X85129300Y-124988560D01*
G75*
G02*
X85605860Y-124512000I476560J0D01*
G01*
X85844140Y-124512000D01*
G75*
G02*
X86320700Y-124988560I0J-476560D01*
G01*
X86320700Y-127233440D01*
G75*
G02*
X85844140Y-127710000I-476560J0D01*
G01*
X85605860Y-127710000D01*
G75*
G02*
X85129300Y-127233440I0J476560D01*
G01*
G37*
G36*
G01*
X83859300Y-127233440D02*
X83859300Y-124988560D01*
G75*
G02*
X84335860Y-124512000I476560J0D01*
G01*
X84574140Y-124512000D01*
G75*
G02*
X85050700Y-124988560I0J-476560D01*
G01*
X85050700Y-127233440D01*
G75*
G02*
X84574140Y-127710000I-476560J0D01*
G01*
X84335860Y-127710000D01*
G75*
G02*
X83859300Y-127233440I0J476560D01*
G01*
G37*
G36*
G01*
X82589300Y-127233440D02*
X82589300Y-124988560D01*
G75*
G02*
X83065860Y-124512000I476560J0D01*
G01*
X83304140Y-124512000D01*
G75*
G02*
X83780700Y-124988560I0J-476560D01*
G01*
X83780700Y-127233440D01*
G75*
G02*
X83304140Y-127710000I-476560J0D01*
G01*
X83065860Y-127710000D01*
G75*
G02*
X82589300Y-127233440I0J476560D01*
G01*
G37*
G36*
G01*
X81319300Y-127233440D02*
X81319300Y-124988560D01*
G75*
G02*
X81795860Y-124512000I476560J0D01*
G01*
X82034140Y-124512000D01*
G75*
G02*
X82510700Y-124988560I0J-476560D01*
G01*
X82510700Y-127233440D01*
G75*
G02*
X82034140Y-127710000I-476560J0D01*
G01*
X81795860Y-127710000D01*
G75*
G02*
X81319300Y-127233440I0J476560D01*
G01*
G37*
G36*
G01*
X80049300Y-127233440D02*
X80049300Y-124988560D01*
G75*
G02*
X80525860Y-124512000I476560J0D01*
G01*
X80764140Y-124512000D01*
G75*
G02*
X81240700Y-124988560I0J-476560D01*
G01*
X81240700Y-127233440D01*
G75*
G02*
X80764140Y-127710000I-476560J0D01*
G01*
X80525860Y-127710000D01*
G75*
G02*
X80049300Y-127233440I0J476560D01*
G01*
G37*
G36*
G01*
X78779300Y-127233440D02*
X78779300Y-124988560D01*
G75*
G02*
X79255860Y-124512000I476560J0D01*
G01*
X79494140Y-124512000D01*
G75*
G02*
X79970700Y-124988560I0J-476560D01*
G01*
X79970700Y-127233440D01*
G75*
G02*
X79494140Y-127710000I-476560J0D01*
G01*
X79255860Y-127710000D01*
G75*
G02*
X78779300Y-127233440I0J476560D01*
G01*
G37*
G36*
G01*
X77509300Y-127233440D02*
X77509300Y-124988560D01*
G75*
G02*
X77985860Y-124512000I476560J0D01*
G01*
X78224140Y-124512000D01*
G75*
G02*
X78700700Y-124988560I0J-476560D01*
G01*
X78700700Y-127233440D01*
G75*
G02*
X78224140Y-127710000I-476560J0D01*
G01*
X77985860Y-127710000D01*
G75*
G02*
X77509300Y-127233440I0J476560D01*
G01*
G37*
G36*
G01*
X76239300Y-127233440D02*
X76239300Y-124988560D01*
G75*
G02*
X76715860Y-124512000I476560J0D01*
G01*
X76954140Y-124512000D01*
G75*
G02*
X77430700Y-124988560I0J-476560D01*
G01*
X77430700Y-127233440D01*
G75*
G02*
X76954140Y-127710000I-476560J0D01*
G01*
X76715860Y-127710000D01*
G75*
G02*
X76239300Y-127233440I0J476560D01*
G01*
G37*
G36*
G01*
X74969300Y-127233440D02*
X74969300Y-124988560D01*
G75*
G02*
X75445860Y-124512000I476560J0D01*
G01*
X75684140Y-124512000D01*
G75*
G02*
X76160700Y-124988560I0J-476560D01*
G01*
X76160700Y-127233440D01*
G75*
G02*
X75684140Y-127710000I-476560J0D01*
G01*
X75445860Y-127710000D01*
G75*
G02*
X74969300Y-127233440I0J476560D01*
G01*
G37*
D14*
X72898000Y-125984000D03*
X170434000Y-125984000D03*
X70866000Y-108966000D03*
X170434000Y-108966000D03*
M02*
