G04 #@! TF.GenerationSoftware,KiCad,Pcbnew,(5.1.10-1-10_14)*
G04 #@! TF.CreationDate,2021-07-01T18:54:41-04:00*
G04 #@! TF.ProjectId,MacVRAMSIMM,4d616356-5241-44d5-9349-4d4d2e6b6963,1.0*
G04 #@! TF.SameCoordinates,Original*
G04 #@! TF.FileFunction,Paste,Top*
G04 #@! TF.FilePolarity,Positive*
%FSLAX46Y46*%
G04 Gerber Fmt 4.6, Leading zero omitted, Abs format (unit mm)*
G04 Created by KiCad (PCBNEW (5.1.10-1-10_14)) date 2021-07-01 18:54:41*
%MOMM*%
%LPD*%
G01*
G04 APERTURE LIST*
G04 APERTURE END LIST*
G36*
G01*
X163965000Y-123043500D02*
X163965000Y-122193500D01*
G75*
G02*
X164215000Y-121943500I250000J0D01*
G01*
X164715000Y-121943500D01*
G75*
G02*
X164965000Y-122193500I0J-250000D01*
G01*
X164965000Y-123043500D01*
G75*
G02*
X164715000Y-123293500I-250000J0D01*
G01*
X164215000Y-123293500D01*
G75*
G02*
X163965000Y-123043500I0J250000D01*
G01*
G37*
G36*
G01*
X165665000Y-123043500D02*
X165665000Y-122193500D01*
G75*
G02*
X165915000Y-121943500I250000J0D01*
G01*
X166415000Y-121943500D01*
G75*
G02*
X166665000Y-122193500I0J-250000D01*
G01*
X166665000Y-123043500D01*
G75*
G02*
X166415000Y-123293500I-250000J0D01*
G01*
X165915000Y-123293500D01*
G75*
G02*
X165665000Y-123043500I0J250000D01*
G01*
G37*
G36*
G01*
X112325000Y-123043500D02*
X112325000Y-122193500D01*
G75*
G02*
X112575000Y-121943500I250000J0D01*
G01*
X113075000Y-121943500D01*
G75*
G02*
X113325000Y-122193500I0J-250000D01*
G01*
X113325000Y-123043500D01*
G75*
G02*
X113075000Y-123293500I-250000J0D01*
G01*
X112575000Y-123293500D01*
G75*
G02*
X112325000Y-123043500I0J250000D01*
G01*
G37*
G36*
G01*
X110625000Y-123043500D02*
X110625000Y-122193500D01*
G75*
G02*
X110875000Y-121943500I250000J0D01*
G01*
X111375000Y-121943500D01*
G75*
G02*
X111625000Y-122193500I0J-250000D01*
G01*
X111625000Y-123043500D01*
G75*
G02*
X111375000Y-123293500I-250000J0D01*
G01*
X110875000Y-123293500D01*
G75*
G02*
X110625000Y-123043500I0J250000D01*
G01*
G37*
G36*
G01*
X75609000Y-121365000D02*
X74759000Y-121365000D01*
G75*
G02*
X74509000Y-121115000I0J250000D01*
G01*
X74509000Y-120615000D01*
G75*
G02*
X74759000Y-120365000I250000J0D01*
G01*
X75609000Y-120365000D01*
G75*
G02*
X75859000Y-120615000I0J-250000D01*
G01*
X75859000Y-121115000D01*
G75*
G02*
X75609000Y-121365000I-250000J0D01*
G01*
G37*
G36*
G01*
X75609000Y-119665000D02*
X74759000Y-119665000D01*
G75*
G02*
X74509000Y-119415000I0J250000D01*
G01*
X74509000Y-118915000D01*
G75*
G02*
X74759000Y-118665000I250000J0D01*
G01*
X75609000Y-118665000D01*
G75*
G02*
X75859000Y-118915000I0J-250000D01*
G01*
X75859000Y-119415000D01*
G75*
G02*
X75609000Y-119665000I-250000J0D01*
G01*
G37*
G36*
G01*
X153079000Y-119665000D02*
X152229000Y-119665000D01*
G75*
G02*
X151979000Y-119415000I0J250000D01*
G01*
X151979000Y-118915000D01*
G75*
G02*
X152229000Y-118665000I250000J0D01*
G01*
X153079000Y-118665000D01*
G75*
G02*
X153329000Y-118915000I0J-250000D01*
G01*
X153329000Y-119415000D01*
G75*
G02*
X153079000Y-119665000I-250000J0D01*
G01*
G37*
G36*
G01*
X153079000Y-121365000D02*
X152229000Y-121365000D01*
G75*
G02*
X151979000Y-121115000I0J250000D01*
G01*
X151979000Y-120615000D01*
G75*
G02*
X152229000Y-120365000I250000J0D01*
G01*
X153079000Y-120365000D01*
G75*
G02*
X153329000Y-120615000I0J-250000D01*
G01*
X153329000Y-121115000D01*
G75*
G02*
X153079000Y-121365000I-250000J0D01*
G01*
G37*
G36*
G01*
X123869000Y-119665000D02*
X123019000Y-119665000D01*
G75*
G02*
X122769000Y-119415000I0J250000D01*
G01*
X122769000Y-118915000D01*
G75*
G02*
X123019000Y-118665000I250000J0D01*
G01*
X123869000Y-118665000D01*
G75*
G02*
X124119000Y-118915000I0J-250000D01*
G01*
X124119000Y-119415000D01*
G75*
G02*
X123869000Y-119665000I-250000J0D01*
G01*
G37*
G36*
G01*
X123869000Y-121365000D02*
X123019000Y-121365000D01*
G75*
G02*
X122769000Y-121115000I0J250000D01*
G01*
X122769000Y-120615000D01*
G75*
G02*
X123019000Y-120365000I250000J0D01*
G01*
X123869000Y-120365000D01*
G75*
G02*
X124119000Y-120615000I0J-250000D01*
G01*
X124119000Y-121115000D01*
G75*
G02*
X123869000Y-121365000I-250000J0D01*
G01*
G37*
G36*
G01*
X104819000Y-121365000D02*
X103969000Y-121365000D01*
G75*
G02*
X103719000Y-121115000I0J250000D01*
G01*
X103719000Y-120615000D01*
G75*
G02*
X103969000Y-120365000I250000J0D01*
G01*
X104819000Y-120365000D01*
G75*
G02*
X105069000Y-120615000I0J-250000D01*
G01*
X105069000Y-121115000D01*
G75*
G02*
X104819000Y-121365000I-250000J0D01*
G01*
G37*
G36*
G01*
X104819000Y-119665000D02*
X103969000Y-119665000D01*
G75*
G02*
X103719000Y-119415000I0J250000D01*
G01*
X103719000Y-118915000D01*
G75*
G02*
X103969000Y-118665000I250000J0D01*
G01*
X104819000Y-118665000D01*
G75*
G02*
X105069000Y-118915000I0J-250000D01*
G01*
X105069000Y-119415000D01*
G75*
G02*
X104819000Y-119665000I-250000J0D01*
G01*
G37*
G36*
G01*
X79131500Y-113386000D02*
X78856500Y-113386000D01*
G75*
G02*
X78719000Y-113248500I0J137500D01*
G01*
X78719000Y-110525500D01*
G75*
G02*
X78856500Y-110388000I137500J0D01*
G01*
X79131500Y-110388000D01*
G75*
G02*
X79269000Y-110525500I0J-137500D01*
G01*
X79269000Y-113248500D01*
G75*
G02*
X79131500Y-113386000I-137500J0D01*
G01*
G37*
G36*
G01*
X77861500Y-113386000D02*
X77586500Y-113386000D01*
G75*
G02*
X77449000Y-113248500I0J137500D01*
G01*
X77449000Y-110525500D01*
G75*
G02*
X77586500Y-110388000I137500J0D01*
G01*
X77861500Y-110388000D01*
G75*
G02*
X77999000Y-110525500I0J-137500D01*
G01*
X77999000Y-113248500D01*
G75*
G02*
X77861500Y-113386000I-137500J0D01*
G01*
G37*
G36*
G01*
X80401500Y-113386000D02*
X80126500Y-113386000D01*
G75*
G02*
X79989000Y-113248500I0J137500D01*
G01*
X79989000Y-110525500D01*
G75*
G02*
X80126500Y-110388000I137500J0D01*
G01*
X80401500Y-110388000D01*
G75*
G02*
X80539000Y-110525500I0J-137500D01*
G01*
X80539000Y-113248500D01*
G75*
G02*
X80401500Y-113386000I-137500J0D01*
G01*
G37*
G36*
G01*
X81671500Y-113386000D02*
X81396500Y-113386000D01*
G75*
G02*
X81259000Y-113248500I0J137500D01*
G01*
X81259000Y-110525500D01*
G75*
G02*
X81396500Y-110388000I137500J0D01*
G01*
X81671500Y-110388000D01*
G75*
G02*
X81809000Y-110525500I0J-137500D01*
G01*
X81809000Y-113248500D01*
G75*
G02*
X81671500Y-113386000I-137500J0D01*
G01*
G37*
G36*
G01*
X85481500Y-113386000D02*
X85206500Y-113386000D01*
G75*
G02*
X85069000Y-113248500I0J137500D01*
G01*
X85069000Y-110525500D01*
G75*
G02*
X85206500Y-110388000I137500J0D01*
G01*
X85481500Y-110388000D01*
G75*
G02*
X85619000Y-110525500I0J-137500D01*
G01*
X85619000Y-113248500D01*
G75*
G02*
X85481500Y-113386000I-137500J0D01*
G01*
G37*
G36*
G01*
X86751500Y-113386000D02*
X86476500Y-113386000D01*
G75*
G02*
X86339000Y-113248500I0J137500D01*
G01*
X86339000Y-110525500D01*
G75*
G02*
X86476500Y-110388000I137500J0D01*
G01*
X86751500Y-110388000D01*
G75*
G02*
X86889000Y-110525500I0J-137500D01*
G01*
X86889000Y-113248500D01*
G75*
G02*
X86751500Y-113386000I-137500J0D01*
G01*
G37*
G36*
G01*
X88021500Y-113386000D02*
X87746500Y-113386000D01*
G75*
G02*
X87609000Y-113248500I0J137500D01*
G01*
X87609000Y-110525500D01*
G75*
G02*
X87746500Y-110388000I137500J0D01*
G01*
X88021500Y-110388000D01*
G75*
G02*
X88159000Y-110525500I0J-137500D01*
G01*
X88159000Y-113248500D01*
G75*
G02*
X88021500Y-113386000I-137500J0D01*
G01*
G37*
G36*
G01*
X89291500Y-113386000D02*
X89016500Y-113386000D01*
G75*
G02*
X88879000Y-113248500I0J137500D01*
G01*
X88879000Y-110525500D01*
G75*
G02*
X89016500Y-110388000I137500J0D01*
G01*
X89291500Y-110388000D01*
G75*
G02*
X89429000Y-110525500I0J-137500D01*
G01*
X89429000Y-113248500D01*
G75*
G02*
X89291500Y-113386000I-137500J0D01*
G01*
G37*
G36*
G01*
X90561500Y-113386000D02*
X90286500Y-113386000D01*
G75*
G02*
X90149000Y-113248500I0J137500D01*
G01*
X90149000Y-110525500D01*
G75*
G02*
X90286500Y-110388000I137500J0D01*
G01*
X90561500Y-110388000D01*
G75*
G02*
X90699000Y-110525500I0J-137500D01*
G01*
X90699000Y-113248500D01*
G75*
G02*
X90561500Y-113386000I-137500J0D01*
G01*
G37*
G36*
G01*
X91831500Y-113386000D02*
X91556500Y-113386000D01*
G75*
G02*
X91419000Y-113248500I0J137500D01*
G01*
X91419000Y-110525500D01*
G75*
G02*
X91556500Y-110388000I137500J0D01*
G01*
X91831500Y-110388000D01*
G75*
G02*
X91969000Y-110525500I0J-137500D01*
G01*
X91969000Y-113248500D01*
G75*
G02*
X91831500Y-113386000I-137500J0D01*
G01*
G37*
G36*
G01*
X84211500Y-113386000D02*
X83936500Y-113386000D01*
G75*
G02*
X83799000Y-113248500I0J137500D01*
G01*
X83799000Y-110525500D01*
G75*
G02*
X83936500Y-110388000I137500J0D01*
G01*
X84211500Y-110388000D01*
G75*
G02*
X84349000Y-110525500I0J-137500D01*
G01*
X84349000Y-113248500D01*
G75*
G02*
X84211500Y-113386000I-137500J0D01*
G01*
G37*
G36*
G01*
X82941500Y-113386000D02*
X82666500Y-113386000D01*
G75*
G02*
X82529000Y-113248500I0J137500D01*
G01*
X82529000Y-110525500D01*
G75*
G02*
X82666500Y-110388000I137500J0D01*
G01*
X82941500Y-110388000D01*
G75*
G02*
X83079000Y-110525500I0J-137500D01*
G01*
X83079000Y-113248500D01*
G75*
G02*
X82941500Y-113386000I-137500J0D01*
G01*
G37*
G36*
G01*
X101991500Y-122276000D02*
X101716500Y-122276000D01*
G75*
G02*
X101579000Y-122138500I0J137500D01*
G01*
X101579000Y-119415500D01*
G75*
G02*
X101716500Y-119278000I137500J0D01*
G01*
X101991500Y-119278000D01*
G75*
G02*
X102129000Y-119415500I0J-137500D01*
G01*
X102129000Y-122138500D01*
G75*
G02*
X101991500Y-122276000I-137500J0D01*
G01*
G37*
G36*
G01*
X100721500Y-122276000D02*
X100446500Y-122276000D01*
G75*
G02*
X100309000Y-122138500I0J137500D01*
G01*
X100309000Y-119415500D01*
G75*
G02*
X100446500Y-119278000I137500J0D01*
G01*
X100721500Y-119278000D01*
G75*
G02*
X100859000Y-119415500I0J-137500D01*
G01*
X100859000Y-122138500D01*
G75*
G02*
X100721500Y-122276000I-137500J0D01*
G01*
G37*
G36*
G01*
X99451500Y-122276000D02*
X99176500Y-122276000D01*
G75*
G02*
X99039000Y-122138500I0J137500D01*
G01*
X99039000Y-119415500D01*
G75*
G02*
X99176500Y-119278000I137500J0D01*
G01*
X99451500Y-119278000D01*
G75*
G02*
X99589000Y-119415500I0J-137500D01*
G01*
X99589000Y-122138500D01*
G75*
G02*
X99451500Y-122276000I-137500J0D01*
G01*
G37*
G36*
G01*
X98181500Y-122276000D02*
X97906500Y-122276000D01*
G75*
G02*
X97769000Y-122138500I0J137500D01*
G01*
X97769000Y-119415500D01*
G75*
G02*
X97906500Y-119278000I137500J0D01*
G01*
X98181500Y-119278000D01*
G75*
G02*
X98319000Y-119415500I0J-137500D01*
G01*
X98319000Y-122138500D01*
G75*
G02*
X98181500Y-122276000I-137500J0D01*
G01*
G37*
G36*
G01*
X96911500Y-122276000D02*
X96636500Y-122276000D01*
G75*
G02*
X96499000Y-122138500I0J137500D01*
G01*
X96499000Y-119415500D01*
G75*
G02*
X96636500Y-119278000I137500J0D01*
G01*
X96911500Y-119278000D01*
G75*
G02*
X97049000Y-119415500I0J-137500D01*
G01*
X97049000Y-122138500D01*
G75*
G02*
X96911500Y-122276000I-137500J0D01*
G01*
G37*
G36*
G01*
X95641500Y-122276000D02*
X95366500Y-122276000D01*
G75*
G02*
X95229000Y-122138500I0J137500D01*
G01*
X95229000Y-119415500D01*
G75*
G02*
X95366500Y-119278000I137500J0D01*
G01*
X95641500Y-119278000D01*
G75*
G02*
X95779000Y-119415500I0J-137500D01*
G01*
X95779000Y-122138500D01*
G75*
G02*
X95641500Y-122276000I-137500J0D01*
G01*
G37*
G36*
G01*
X85481500Y-122276000D02*
X85206500Y-122276000D01*
G75*
G02*
X85069000Y-122138500I0J137500D01*
G01*
X85069000Y-119415500D01*
G75*
G02*
X85206500Y-119278000I137500J0D01*
G01*
X85481500Y-119278000D01*
G75*
G02*
X85619000Y-119415500I0J-137500D01*
G01*
X85619000Y-122138500D01*
G75*
G02*
X85481500Y-122276000I-137500J0D01*
G01*
G37*
G36*
G01*
X95641500Y-113386000D02*
X95366500Y-113386000D01*
G75*
G02*
X95229000Y-113248500I0J137500D01*
G01*
X95229000Y-110525500D01*
G75*
G02*
X95366500Y-110388000I137500J0D01*
G01*
X95641500Y-110388000D01*
G75*
G02*
X95779000Y-110525500I0J-137500D01*
G01*
X95779000Y-113248500D01*
G75*
G02*
X95641500Y-113386000I-137500J0D01*
G01*
G37*
G36*
G01*
X96911500Y-113386000D02*
X96636500Y-113386000D01*
G75*
G02*
X96499000Y-113248500I0J137500D01*
G01*
X96499000Y-110525500D01*
G75*
G02*
X96636500Y-110388000I137500J0D01*
G01*
X96911500Y-110388000D01*
G75*
G02*
X97049000Y-110525500I0J-137500D01*
G01*
X97049000Y-113248500D01*
G75*
G02*
X96911500Y-113386000I-137500J0D01*
G01*
G37*
G36*
G01*
X98181500Y-113386000D02*
X97906500Y-113386000D01*
G75*
G02*
X97769000Y-113248500I0J137500D01*
G01*
X97769000Y-110525500D01*
G75*
G02*
X97906500Y-110388000I137500J0D01*
G01*
X98181500Y-110388000D01*
G75*
G02*
X98319000Y-110525500I0J-137500D01*
G01*
X98319000Y-113248500D01*
G75*
G02*
X98181500Y-113386000I-137500J0D01*
G01*
G37*
G36*
G01*
X99451500Y-113386000D02*
X99176500Y-113386000D01*
G75*
G02*
X99039000Y-113248500I0J137500D01*
G01*
X99039000Y-110525500D01*
G75*
G02*
X99176500Y-110388000I137500J0D01*
G01*
X99451500Y-110388000D01*
G75*
G02*
X99589000Y-110525500I0J-137500D01*
G01*
X99589000Y-113248500D01*
G75*
G02*
X99451500Y-113386000I-137500J0D01*
G01*
G37*
G36*
G01*
X100721500Y-113386000D02*
X100446500Y-113386000D01*
G75*
G02*
X100309000Y-113248500I0J137500D01*
G01*
X100309000Y-110525500D01*
G75*
G02*
X100446500Y-110388000I137500J0D01*
G01*
X100721500Y-110388000D01*
G75*
G02*
X100859000Y-110525500I0J-137500D01*
G01*
X100859000Y-113248500D01*
G75*
G02*
X100721500Y-113386000I-137500J0D01*
G01*
G37*
G36*
G01*
X93101500Y-122276000D02*
X92826500Y-122276000D01*
G75*
G02*
X92689000Y-122138500I0J137500D01*
G01*
X92689000Y-119415500D01*
G75*
G02*
X92826500Y-119278000I137500J0D01*
G01*
X93101500Y-119278000D01*
G75*
G02*
X93239000Y-119415500I0J-137500D01*
G01*
X93239000Y-122138500D01*
G75*
G02*
X93101500Y-122276000I-137500J0D01*
G01*
G37*
G36*
G01*
X91831500Y-122276000D02*
X91556500Y-122276000D01*
G75*
G02*
X91419000Y-122138500I0J137500D01*
G01*
X91419000Y-119415500D01*
G75*
G02*
X91556500Y-119278000I137500J0D01*
G01*
X91831500Y-119278000D01*
G75*
G02*
X91969000Y-119415500I0J-137500D01*
G01*
X91969000Y-122138500D01*
G75*
G02*
X91831500Y-122276000I-137500J0D01*
G01*
G37*
G36*
G01*
X90561500Y-122276000D02*
X90286500Y-122276000D01*
G75*
G02*
X90149000Y-122138500I0J137500D01*
G01*
X90149000Y-119415500D01*
G75*
G02*
X90286500Y-119278000I137500J0D01*
G01*
X90561500Y-119278000D01*
G75*
G02*
X90699000Y-119415500I0J-137500D01*
G01*
X90699000Y-122138500D01*
G75*
G02*
X90561500Y-122276000I-137500J0D01*
G01*
G37*
G36*
G01*
X89291500Y-122276000D02*
X89016500Y-122276000D01*
G75*
G02*
X88879000Y-122138500I0J137500D01*
G01*
X88879000Y-119415500D01*
G75*
G02*
X89016500Y-119278000I137500J0D01*
G01*
X89291500Y-119278000D01*
G75*
G02*
X89429000Y-119415500I0J-137500D01*
G01*
X89429000Y-122138500D01*
G75*
G02*
X89291500Y-122276000I-137500J0D01*
G01*
G37*
G36*
G01*
X88021500Y-122276000D02*
X87746500Y-122276000D01*
G75*
G02*
X87609000Y-122138500I0J137500D01*
G01*
X87609000Y-119415500D01*
G75*
G02*
X87746500Y-119278000I137500J0D01*
G01*
X88021500Y-119278000D01*
G75*
G02*
X88159000Y-119415500I0J-137500D01*
G01*
X88159000Y-122138500D01*
G75*
G02*
X88021500Y-122276000I-137500J0D01*
G01*
G37*
G36*
G01*
X82941500Y-122276000D02*
X82666500Y-122276000D01*
G75*
G02*
X82529000Y-122138500I0J137500D01*
G01*
X82529000Y-119415500D01*
G75*
G02*
X82666500Y-119278000I137500J0D01*
G01*
X82941500Y-119278000D01*
G75*
G02*
X83079000Y-119415500I0J-137500D01*
G01*
X83079000Y-122138500D01*
G75*
G02*
X82941500Y-122276000I-137500J0D01*
G01*
G37*
G36*
G01*
X81671500Y-122276000D02*
X81396500Y-122276000D01*
G75*
G02*
X81259000Y-122138500I0J137500D01*
G01*
X81259000Y-119415500D01*
G75*
G02*
X81396500Y-119278000I137500J0D01*
G01*
X81671500Y-119278000D01*
G75*
G02*
X81809000Y-119415500I0J-137500D01*
G01*
X81809000Y-122138500D01*
G75*
G02*
X81671500Y-122276000I-137500J0D01*
G01*
G37*
G36*
G01*
X80401500Y-122276000D02*
X80126500Y-122276000D01*
G75*
G02*
X79989000Y-122138500I0J137500D01*
G01*
X79989000Y-119415500D01*
G75*
G02*
X80126500Y-119278000I137500J0D01*
G01*
X80401500Y-119278000D01*
G75*
G02*
X80539000Y-119415500I0J-137500D01*
G01*
X80539000Y-122138500D01*
G75*
G02*
X80401500Y-122276000I-137500J0D01*
G01*
G37*
G36*
G01*
X79131500Y-122276000D02*
X78856500Y-122276000D01*
G75*
G02*
X78719000Y-122138500I0J137500D01*
G01*
X78719000Y-119415500D01*
G75*
G02*
X78856500Y-119278000I137500J0D01*
G01*
X79131500Y-119278000D01*
G75*
G02*
X79269000Y-119415500I0J-137500D01*
G01*
X79269000Y-122138500D01*
G75*
G02*
X79131500Y-122276000I-137500J0D01*
G01*
G37*
G36*
G01*
X77861500Y-122276000D02*
X77586500Y-122276000D01*
G75*
G02*
X77449000Y-122138500I0J137500D01*
G01*
X77449000Y-119415500D01*
G75*
G02*
X77586500Y-119278000I137500J0D01*
G01*
X77861500Y-119278000D01*
G75*
G02*
X77999000Y-119415500I0J-137500D01*
G01*
X77999000Y-122138500D01*
G75*
G02*
X77861500Y-122276000I-137500J0D01*
G01*
G37*
G36*
G01*
X101991500Y-113386000D02*
X101716500Y-113386000D01*
G75*
G02*
X101579000Y-113248500I0J137500D01*
G01*
X101579000Y-110525500D01*
G75*
G02*
X101716500Y-110388000I137500J0D01*
G01*
X101991500Y-110388000D01*
G75*
G02*
X102129000Y-110525500I0J-137500D01*
G01*
X102129000Y-113248500D01*
G75*
G02*
X101991500Y-113386000I-137500J0D01*
G01*
G37*
G36*
G01*
X84211500Y-122276000D02*
X83936500Y-122276000D01*
G75*
G02*
X83799000Y-122138500I0J137500D01*
G01*
X83799000Y-119415500D01*
G75*
G02*
X83936500Y-119278000I137500J0D01*
G01*
X84211500Y-119278000D01*
G75*
G02*
X84349000Y-119415500I0J-137500D01*
G01*
X84349000Y-122138500D01*
G75*
G02*
X84211500Y-122276000I-137500J0D01*
G01*
G37*
G36*
G01*
X86751500Y-122276000D02*
X86476500Y-122276000D01*
G75*
G02*
X86339000Y-122138500I0J137500D01*
G01*
X86339000Y-119415500D01*
G75*
G02*
X86476500Y-119278000I137500J0D01*
G01*
X86751500Y-119278000D01*
G75*
G02*
X86889000Y-119415500I0J-137500D01*
G01*
X86889000Y-122138500D01*
G75*
G02*
X86751500Y-122276000I-137500J0D01*
G01*
G37*
G36*
G01*
X94371500Y-122276000D02*
X94096500Y-122276000D01*
G75*
G02*
X93959000Y-122138500I0J137500D01*
G01*
X93959000Y-119415500D01*
G75*
G02*
X94096500Y-119278000I137500J0D01*
G01*
X94371500Y-119278000D01*
G75*
G02*
X94509000Y-119415500I0J-137500D01*
G01*
X94509000Y-122138500D01*
G75*
G02*
X94371500Y-122276000I-137500J0D01*
G01*
G37*
G36*
G01*
X94371500Y-113386000D02*
X94096500Y-113386000D01*
G75*
G02*
X93959000Y-113248500I0J137500D01*
G01*
X93959000Y-110525500D01*
G75*
G02*
X94096500Y-110388000I137500J0D01*
G01*
X94371500Y-110388000D01*
G75*
G02*
X94509000Y-110525500I0J-137500D01*
G01*
X94509000Y-113248500D01*
G75*
G02*
X94371500Y-113386000I-137500J0D01*
G01*
G37*
G36*
G01*
X93101500Y-113386000D02*
X92826500Y-113386000D01*
G75*
G02*
X92689000Y-113248500I0J137500D01*
G01*
X92689000Y-110525500D01*
G75*
G02*
X92826500Y-110388000I137500J0D01*
G01*
X93101500Y-110388000D01*
G75*
G02*
X93239000Y-110525500I0J-137500D01*
G01*
X93239000Y-113248500D01*
G75*
G02*
X93101500Y-113386000I-137500J0D01*
G01*
G37*
G36*
G01*
X141361500Y-113386000D02*
X141086500Y-113386000D01*
G75*
G02*
X140949000Y-113248500I0J137500D01*
G01*
X140949000Y-110525500D01*
G75*
G02*
X141086500Y-110388000I137500J0D01*
G01*
X141361500Y-110388000D01*
G75*
G02*
X141499000Y-110525500I0J-137500D01*
G01*
X141499000Y-113248500D01*
G75*
G02*
X141361500Y-113386000I-137500J0D01*
G01*
G37*
G36*
G01*
X142631500Y-113386000D02*
X142356500Y-113386000D01*
G75*
G02*
X142219000Y-113248500I0J137500D01*
G01*
X142219000Y-110525500D01*
G75*
G02*
X142356500Y-110388000I137500J0D01*
G01*
X142631500Y-110388000D01*
G75*
G02*
X142769000Y-110525500I0J-137500D01*
G01*
X142769000Y-113248500D01*
G75*
G02*
X142631500Y-113386000I-137500J0D01*
G01*
G37*
G36*
G01*
X142631500Y-122276000D02*
X142356500Y-122276000D01*
G75*
G02*
X142219000Y-122138500I0J137500D01*
G01*
X142219000Y-119415500D01*
G75*
G02*
X142356500Y-119278000I137500J0D01*
G01*
X142631500Y-119278000D01*
G75*
G02*
X142769000Y-119415500I0J-137500D01*
G01*
X142769000Y-122138500D01*
G75*
G02*
X142631500Y-122276000I-137500J0D01*
G01*
G37*
G36*
G01*
X135011500Y-122276000D02*
X134736500Y-122276000D01*
G75*
G02*
X134599000Y-122138500I0J137500D01*
G01*
X134599000Y-119415500D01*
G75*
G02*
X134736500Y-119278000I137500J0D01*
G01*
X135011500Y-119278000D01*
G75*
G02*
X135149000Y-119415500I0J-137500D01*
G01*
X135149000Y-122138500D01*
G75*
G02*
X135011500Y-122276000I-137500J0D01*
G01*
G37*
G36*
G01*
X132471500Y-122276000D02*
X132196500Y-122276000D01*
G75*
G02*
X132059000Y-122138500I0J137500D01*
G01*
X132059000Y-119415500D01*
G75*
G02*
X132196500Y-119278000I137500J0D01*
G01*
X132471500Y-119278000D01*
G75*
G02*
X132609000Y-119415500I0J-137500D01*
G01*
X132609000Y-122138500D01*
G75*
G02*
X132471500Y-122276000I-137500J0D01*
G01*
G37*
G36*
G01*
X150251500Y-113386000D02*
X149976500Y-113386000D01*
G75*
G02*
X149839000Y-113248500I0J137500D01*
G01*
X149839000Y-110525500D01*
G75*
G02*
X149976500Y-110388000I137500J0D01*
G01*
X150251500Y-110388000D01*
G75*
G02*
X150389000Y-110525500I0J-137500D01*
G01*
X150389000Y-113248500D01*
G75*
G02*
X150251500Y-113386000I-137500J0D01*
G01*
G37*
G36*
G01*
X126121500Y-122276000D02*
X125846500Y-122276000D01*
G75*
G02*
X125709000Y-122138500I0J137500D01*
G01*
X125709000Y-119415500D01*
G75*
G02*
X125846500Y-119278000I137500J0D01*
G01*
X126121500Y-119278000D01*
G75*
G02*
X126259000Y-119415500I0J-137500D01*
G01*
X126259000Y-122138500D01*
G75*
G02*
X126121500Y-122276000I-137500J0D01*
G01*
G37*
G36*
G01*
X127391500Y-122276000D02*
X127116500Y-122276000D01*
G75*
G02*
X126979000Y-122138500I0J137500D01*
G01*
X126979000Y-119415500D01*
G75*
G02*
X127116500Y-119278000I137500J0D01*
G01*
X127391500Y-119278000D01*
G75*
G02*
X127529000Y-119415500I0J-137500D01*
G01*
X127529000Y-122138500D01*
G75*
G02*
X127391500Y-122276000I-137500J0D01*
G01*
G37*
G36*
G01*
X128661500Y-122276000D02*
X128386500Y-122276000D01*
G75*
G02*
X128249000Y-122138500I0J137500D01*
G01*
X128249000Y-119415500D01*
G75*
G02*
X128386500Y-119278000I137500J0D01*
G01*
X128661500Y-119278000D01*
G75*
G02*
X128799000Y-119415500I0J-137500D01*
G01*
X128799000Y-122138500D01*
G75*
G02*
X128661500Y-122276000I-137500J0D01*
G01*
G37*
G36*
G01*
X129931500Y-122276000D02*
X129656500Y-122276000D01*
G75*
G02*
X129519000Y-122138500I0J137500D01*
G01*
X129519000Y-119415500D01*
G75*
G02*
X129656500Y-119278000I137500J0D01*
G01*
X129931500Y-119278000D01*
G75*
G02*
X130069000Y-119415500I0J-137500D01*
G01*
X130069000Y-122138500D01*
G75*
G02*
X129931500Y-122276000I-137500J0D01*
G01*
G37*
G36*
G01*
X131201500Y-122276000D02*
X130926500Y-122276000D01*
G75*
G02*
X130789000Y-122138500I0J137500D01*
G01*
X130789000Y-119415500D01*
G75*
G02*
X130926500Y-119278000I137500J0D01*
G01*
X131201500Y-119278000D01*
G75*
G02*
X131339000Y-119415500I0J-137500D01*
G01*
X131339000Y-122138500D01*
G75*
G02*
X131201500Y-122276000I-137500J0D01*
G01*
G37*
G36*
G01*
X136281500Y-122276000D02*
X136006500Y-122276000D01*
G75*
G02*
X135869000Y-122138500I0J137500D01*
G01*
X135869000Y-119415500D01*
G75*
G02*
X136006500Y-119278000I137500J0D01*
G01*
X136281500Y-119278000D01*
G75*
G02*
X136419000Y-119415500I0J-137500D01*
G01*
X136419000Y-122138500D01*
G75*
G02*
X136281500Y-122276000I-137500J0D01*
G01*
G37*
G36*
G01*
X137551500Y-122276000D02*
X137276500Y-122276000D01*
G75*
G02*
X137139000Y-122138500I0J137500D01*
G01*
X137139000Y-119415500D01*
G75*
G02*
X137276500Y-119278000I137500J0D01*
G01*
X137551500Y-119278000D01*
G75*
G02*
X137689000Y-119415500I0J-137500D01*
G01*
X137689000Y-122138500D01*
G75*
G02*
X137551500Y-122276000I-137500J0D01*
G01*
G37*
G36*
G01*
X138821500Y-122276000D02*
X138546500Y-122276000D01*
G75*
G02*
X138409000Y-122138500I0J137500D01*
G01*
X138409000Y-119415500D01*
G75*
G02*
X138546500Y-119278000I137500J0D01*
G01*
X138821500Y-119278000D01*
G75*
G02*
X138959000Y-119415500I0J-137500D01*
G01*
X138959000Y-122138500D01*
G75*
G02*
X138821500Y-122276000I-137500J0D01*
G01*
G37*
G36*
G01*
X140091500Y-122276000D02*
X139816500Y-122276000D01*
G75*
G02*
X139679000Y-122138500I0J137500D01*
G01*
X139679000Y-119415500D01*
G75*
G02*
X139816500Y-119278000I137500J0D01*
G01*
X140091500Y-119278000D01*
G75*
G02*
X140229000Y-119415500I0J-137500D01*
G01*
X140229000Y-122138500D01*
G75*
G02*
X140091500Y-122276000I-137500J0D01*
G01*
G37*
G36*
G01*
X141361500Y-122276000D02*
X141086500Y-122276000D01*
G75*
G02*
X140949000Y-122138500I0J137500D01*
G01*
X140949000Y-119415500D01*
G75*
G02*
X141086500Y-119278000I137500J0D01*
G01*
X141361500Y-119278000D01*
G75*
G02*
X141499000Y-119415500I0J-137500D01*
G01*
X141499000Y-122138500D01*
G75*
G02*
X141361500Y-122276000I-137500J0D01*
G01*
G37*
G36*
G01*
X148981500Y-113386000D02*
X148706500Y-113386000D01*
G75*
G02*
X148569000Y-113248500I0J137500D01*
G01*
X148569000Y-110525500D01*
G75*
G02*
X148706500Y-110388000I137500J0D01*
G01*
X148981500Y-110388000D01*
G75*
G02*
X149119000Y-110525500I0J-137500D01*
G01*
X149119000Y-113248500D01*
G75*
G02*
X148981500Y-113386000I-137500J0D01*
G01*
G37*
G36*
G01*
X147711500Y-113386000D02*
X147436500Y-113386000D01*
G75*
G02*
X147299000Y-113248500I0J137500D01*
G01*
X147299000Y-110525500D01*
G75*
G02*
X147436500Y-110388000I137500J0D01*
G01*
X147711500Y-110388000D01*
G75*
G02*
X147849000Y-110525500I0J-137500D01*
G01*
X147849000Y-113248500D01*
G75*
G02*
X147711500Y-113386000I-137500J0D01*
G01*
G37*
G36*
G01*
X146441500Y-113386000D02*
X146166500Y-113386000D01*
G75*
G02*
X146029000Y-113248500I0J137500D01*
G01*
X146029000Y-110525500D01*
G75*
G02*
X146166500Y-110388000I137500J0D01*
G01*
X146441500Y-110388000D01*
G75*
G02*
X146579000Y-110525500I0J-137500D01*
G01*
X146579000Y-113248500D01*
G75*
G02*
X146441500Y-113386000I-137500J0D01*
G01*
G37*
G36*
G01*
X145171500Y-113386000D02*
X144896500Y-113386000D01*
G75*
G02*
X144759000Y-113248500I0J137500D01*
G01*
X144759000Y-110525500D01*
G75*
G02*
X144896500Y-110388000I137500J0D01*
G01*
X145171500Y-110388000D01*
G75*
G02*
X145309000Y-110525500I0J-137500D01*
G01*
X145309000Y-113248500D01*
G75*
G02*
X145171500Y-113386000I-137500J0D01*
G01*
G37*
G36*
G01*
X143901500Y-113386000D02*
X143626500Y-113386000D01*
G75*
G02*
X143489000Y-113248500I0J137500D01*
G01*
X143489000Y-110525500D01*
G75*
G02*
X143626500Y-110388000I137500J0D01*
G01*
X143901500Y-110388000D01*
G75*
G02*
X144039000Y-110525500I0J-137500D01*
G01*
X144039000Y-113248500D01*
G75*
G02*
X143901500Y-113386000I-137500J0D01*
G01*
G37*
G36*
G01*
X133741500Y-122276000D02*
X133466500Y-122276000D01*
G75*
G02*
X133329000Y-122138500I0J137500D01*
G01*
X133329000Y-119415500D01*
G75*
G02*
X133466500Y-119278000I137500J0D01*
G01*
X133741500Y-119278000D01*
G75*
G02*
X133879000Y-119415500I0J-137500D01*
G01*
X133879000Y-122138500D01*
G75*
G02*
X133741500Y-122276000I-137500J0D01*
G01*
G37*
G36*
G01*
X143901500Y-122276000D02*
X143626500Y-122276000D01*
G75*
G02*
X143489000Y-122138500I0J137500D01*
G01*
X143489000Y-119415500D01*
G75*
G02*
X143626500Y-119278000I137500J0D01*
G01*
X143901500Y-119278000D01*
G75*
G02*
X144039000Y-119415500I0J-137500D01*
G01*
X144039000Y-122138500D01*
G75*
G02*
X143901500Y-122276000I-137500J0D01*
G01*
G37*
G36*
G01*
X145171500Y-122276000D02*
X144896500Y-122276000D01*
G75*
G02*
X144759000Y-122138500I0J137500D01*
G01*
X144759000Y-119415500D01*
G75*
G02*
X144896500Y-119278000I137500J0D01*
G01*
X145171500Y-119278000D01*
G75*
G02*
X145309000Y-119415500I0J-137500D01*
G01*
X145309000Y-122138500D01*
G75*
G02*
X145171500Y-122276000I-137500J0D01*
G01*
G37*
G36*
G01*
X146441500Y-122276000D02*
X146166500Y-122276000D01*
G75*
G02*
X146029000Y-122138500I0J137500D01*
G01*
X146029000Y-119415500D01*
G75*
G02*
X146166500Y-119278000I137500J0D01*
G01*
X146441500Y-119278000D01*
G75*
G02*
X146579000Y-119415500I0J-137500D01*
G01*
X146579000Y-122138500D01*
G75*
G02*
X146441500Y-122276000I-137500J0D01*
G01*
G37*
G36*
G01*
X147711500Y-122276000D02*
X147436500Y-122276000D01*
G75*
G02*
X147299000Y-122138500I0J137500D01*
G01*
X147299000Y-119415500D01*
G75*
G02*
X147436500Y-119278000I137500J0D01*
G01*
X147711500Y-119278000D01*
G75*
G02*
X147849000Y-119415500I0J-137500D01*
G01*
X147849000Y-122138500D01*
G75*
G02*
X147711500Y-122276000I-137500J0D01*
G01*
G37*
G36*
G01*
X148981500Y-122276000D02*
X148706500Y-122276000D01*
G75*
G02*
X148569000Y-122138500I0J137500D01*
G01*
X148569000Y-119415500D01*
G75*
G02*
X148706500Y-119278000I137500J0D01*
G01*
X148981500Y-119278000D01*
G75*
G02*
X149119000Y-119415500I0J-137500D01*
G01*
X149119000Y-122138500D01*
G75*
G02*
X148981500Y-122276000I-137500J0D01*
G01*
G37*
G36*
G01*
X150251500Y-122276000D02*
X149976500Y-122276000D01*
G75*
G02*
X149839000Y-122138500I0J137500D01*
G01*
X149839000Y-119415500D01*
G75*
G02*
X149976500Y-119278000I137500J0D01*
G01*
X150251500Y-119278000D01*
G75*
G02*
X150389000Y-119415500I0J-137500D01*
G01*
X150389000Y-122138500D01*
G75*
G02*
X150251500Y-122276000I-137500J0D01*
G01*
G37*
G36*
G01*
X131201500Y-113386000D02*
X130926500Y-113386000D01*
G75*
G02*
X130789000Y-113248500I0J137500D01*
G01*
X130789000Y-110525500D01*
G75*
G02*
X130926500Y-110388000I137500J0D01*
G01*
X131201500Y-110388000D01*
G75*
G02*
X131339000Y-110525500I0J-137500D01*
G01*
X131339000Y-113248500D01*
G75*
G02*
X131201500Y-113386000I-137500J0D01*
G01*
G37*
G36*
G01*
X132471500Y-113386000D02*
X132196500Y-113386000D01*
G75*
G02*
X132059000Y-113248500I0J137500D01*
G01*
X132059000Y-110525500D01*
G75*
G02*
X132196500Y-110388000I137500J0D01*
G01*
X132471500Y-110388000D01*
G75*
G02*
X132609000Y-110525500I0J-137500D01*
G01*
X132609000Y-113248500D01*
G75*
G02*
X132471500Y-113386000I-137500J0D01*
G01*
G37*
G36*
G01*
X140091500Y-113386000D02*
X139816500Y-113386000D01*
G75*
G02*
X139679000Y-113248500I0J137500D01*
G01*
X139679000Y-110525500D01*
G75*
G02*
X139816500Y-110388000I137500J0D01*
G01*
X140091500Y-110388000D01*
G75*
G02*
X140229000Y-110525500I0J-137500D01*
G01*
X140229000Y-113248500D01*
G75*
G02*
X140091500Y-113386000I-137500J0D01*
G01*
G37*
G36*
G01*
X138821500Y-113386000D02*
X138546500Y-113386000D01*
G75*
G02*
X138409000Y-113248500I0J137500D01*
G01*
X138409000Y-110525500D01*
G75*
G02*
X138546500Y-110388000I137500J0D01*
G01*
X138821500Y-110388000D01*
G75*
G02*
X138959000Y-110525500I0J-137500D01*
G01*
X138959000Y-113248500D01*
G75*
G02*
X138821500Y-113386000I-137500J0D01*
G01*
G37*
G36*
G01*
X137551500Y-113386000D02*
X137276500Y-113386000D01*
G75*
G02*
X137139000Y-113248500I0J137500D01*
G01*
X137139000Y-110525500D01*
G75*
G02*
X137276500Y-110388000I137500J0D01*
G01*
X137551500Y-110388000D01*
G75*
G02*
X137689000Y-110525500I0J-137500D01*
G01*
X137689000Y-113248500D01*
G75*
G02*
X137551500Y-113386000I-137500J0D01*
G01*
G37*
G36*
G01*
X136281500Y-113386000D02*
X136006500Y-113386000D01*
G75*
G02*
X135869000Y-113248500I0J137500D01*
G01*
X135869000Y-110525500D01*
G75*
G02*
X136006500Y-110388000I137500J0D01*
G01*
X136281500Y-110388000D01*
G75*
G02*
X136419000Y-110525500I0J-137500D01*
G01*
X136419000Y-113248500D01*
G75*
G02*
X136281500Y-113386000I-137500J0D01*
G01*
G37*
G36*
G01*
X135011500Y-113386000D02*
X134736500Y-113386000D01*
G75*
G02*
X134599000Y-113248500I0J137500D01*
G01*
X134599000Y-110525500D01*
G75*
G02*
X134736500Y-110388000I137500J0D01*
G01*
X135011500Y-110388000D01*
G75*
G02*
X135149000Y-110525500I0J-137500D01*
G01*
X135149000Y-113248500D01*
G75*
G02*
X135011500Y-113386000I-137500J0D01*
G01*
G37*
G36*
G01*
X133741500Y-113386000D02*
X133466500Y-113386000D01*
G75*
G02*
X133329000Y-113248500I0J137500D01*
G01*
X133329000Y-110525500D01*
G75*
G02*
X133466500Y-110388000I137500J0D01*
G01*
X133741500Y-110388000D01*
G75*
G02*
X133879000Y-110525500I0J-137500D01*
G01*
X133879000Y-113248500D01*
G75*
G02*
X133741500Y-113386000I-137500J0D01*
G01*
G37*
G36*
G01*
X129931500Y-113386000D02*
X129656500Y-113386000D01*
G75*
G02*
X129519000Y-113248500I0J137500D01*
G01*
X129519000Y-110525500D01*
G75*
G02*
X129656500Y-110388000I137500J0D01*
G01*
X129931500Y-110388000D01*
G75*
G02*
X130069000Y-110525500I0J-137500D01*
G01*
X130069000Y-113248500D01*
G75*
G02*
X129931500Y-113386000I-137500J0D01*
G01*
G37*
G36*
G01*
X128661500Y-113386000D02*
X128386500Y-113386000D01*
G75*
G02*
X128249000Y-113248500I0J137500D01*
G01*
X128249000Y-110525500D01*
G75*
G02*
X128386500Y-110388000I137500J0D01*
G01*
X128661500Y-110388000D01*
G75*
G02*
X128799000Y-110525500I0J-137500D01*
G01*
X128799000Y-113248500D01*
G75*
G02*
X128661500Y-113386000I-137500J0D01*
G01*
G37*
G36*
G01*
X126121500Y-113386000D02*
X125846500Y-113386000D01*
G75*
G02*
X125709000Y-113248500I0J137500D01*
G01*
X125709000Y-110525500D01*
G75*
G02*
X125846500Y-110388000I137500J0D01*
G01*
X126121500Y-110388000D01*
G75*
G02*
X126259000Y-110525500I0J-137500D01*
G01*
X126259000Y-113248500D01*
G75*
G02*
X126121500Y-113386000I-137500J0D01*
G01*
G37*
G36*
G01*
X127391500Y-113386000D02*
X127116500Y-113386000D01*
G75*
G02*
X126979000Y-113248500I0J137500D01*
G01*
X126979000Y-110525500D01*
G75*
G02*
X127116500Y-110388000I137500J0D01*
G01*
X127391500Y-110388000D01*
G75*
G02*
X127529000Y-110525500I0J-137500D01*
G01*
X127529000Y-113248500D01*
G75*
G02*
X127391500Y-113386000I-137500J0D01*
G01*
G37*
M02*
